<?xml version="1.0" encoding="UTF-8"?>
<!-- Generator: visioncortex VTracer 0.6.3 -->
<svg version="1.1" xmlns="http://www.w3.org/2000/svg" width="1280" height="1280">
<path d="M0 0 C422.4 0 844.8 0 1280 0 C1280 422.4 1280 844.8 1280 1280 C857.6 1280 435.2 1280 0 1280 C0 857.6 0 435.2 0 0 Z " fill="#009ADA" transform="translate(0,0)"/>
<path d="M0 0 C422.4 0 844.8 0 1280 0 C1280 210.87 1280 421.74 1280 639 C1108.4 639.33 936.8 639.66 760 640 C760.06 434.94 760.06 434.94 760.09 370.11 C760.09 350.99 760.09 350.99 760.1 331.87 C760.1 323.33 760.1 314.79 760.11 306.25 C760.11 296.41 760.11 286.56 760.11 276.72 C760.11 271.69 760.11 266.65 760.12 261.61 C760.12 257.06 760.12 252.51 760.12 247.95 C760.12 246.3 760.12 244.66 760.12 243.01 C760.13 240.77 760.13 238.52 760.12 236.28 C760.12 235.03 760.12 233.79 760.12 232.5 C760.18 225.64 760.18 225.64 757 220 C753.88 219.81 750.85 219.74 747.72 219.76 C746.75 219.76 745.78 219.76 744.77 219.75 C741.49 219.75 738.21 219.76 734.93 219.77 C732.58 219.77 730.24 219.77 727.89 219.77 C721.51 219.77 715.12 219.78 708.74 219.8 C702.75 219.81 696.76 219.81 690.77 219.81 C678.9 219.82 667.03 219.83 655.16 219.85 C643.63 219.87 632.1 219.88 620.57 219.89 C619.86 219.89 619.15 219.89 618.42 219.89 C614.86 219.89 611.29 219.9 607.73 219.9 C578.15 219.92 548.58 219.96 519 220 C519 220.88 519 221.77 519 222.68 C518.92 275 518.82 327.33 518.72 379.65 C518.71 385.93 518.69 392.2 518.68 398.48 C518.68 399.73 518.68 400.98 518.68 402.27 C518.64 422.52 518.6 442.78 518.57 463.04 C518.54 483.81 518.5 504.58 518.46 525.36 C518.43 538.18 518.41 551.01 518.39 563.84 C518.38 572.62 518.36 581.41 518.34 590.19 C518.33 595.27 518.32 600.34 518.32 605.42 C518.31 610.06 518.3 614.7 518.29 619.34 C518.28 621.02 518.28 622.71 518.28 624.39 C518.28 626.67 518.27 628.95 518.26 631.23 C518.26 632.49 518.26 633.76 518.25 635.07 C518 638 518 638 516 640 C513.2 640.19 510.5 640.25 507.7 640.23 C506.38 640.23 506.38 640.23 505.05 640.23 C502.09 640.23 499.13 640.22 496.17 640.2 C494.05 640.2 491.92 640.2 489.8 640.2 C483.92 640.19 478.04 640.17 472.17 640.15 C465.75 640.13 459.33 640.12 452.91 640.11 C441.85 640.09 430.79 640.06 419.73 640.02 C403.89 639.98 388.04 639.94 372.2 639.91 C334.09 639.83 295.98 639.72 257.88 639.62 C172.78 639.42 87.68 639.21 0 639 C0 428.13 0 217.26 0 0 Z " fill="#003970" transform="translate(0,0)"/>
<path d="M0 0 C0.92 0 1.84 0 2.79 0 C3.76 -0 4.73 -0 5.73 -0.01 C9.01 -0.02 12.29 -0.02 15.57 -0.02 C17.91 -0.02 20.25 -0.03 22.59 -0.03 C28.97 -0.05 35.34 -0.05 41.72 -0.06 C45.7 -0.06 49.67 -0.06 53.65 -0.07 C64.66 -0.08 75.67 -0.09 86.68 -0.09 C87.38 -0.09 88.09 -0.09 88.81 -0.1 C89.52 -0.1 90.23 -0.1 90.95 -0.1 C92.39 -0.1 93.82 -0.1 95.25 -0.1 C95.96 -0.1 96.67 -0.1 97.4 -0.1 C108.92 -0.1 120.43 -0.12 131.95 -0.14 C143.76 -0.17 155.57 -0.18 167.38 -0.18 C174.02 -0.18 180.66 -0.19 187.29 -0.2 C193.53 -0.22 199.77 -0.22 206.01 -0.21 C208.31 -0.21 210.6 -0.22 212.9 -0.23 C216.02 -0.24 219.14 -0.23 222.27 -0.22 C223.18 -0.23 224.1 -0.24 225.04 -0.25 C226.3 -0.24 226.3 -0.24 227.57 -0.23 C228.29 -0.23 229.02 -0.23 229.76 -0.23 C232.31 0.27 233.05 1.11 234.66 3.14 C236.45 11.66 235.8 20.97 235.78 29.63 C235.78 31.06 235.78 32.5 235.78 33.93 C235.79 37.86 235.78 41.79 235.78 45.71 C235.77 49.99 235.78 54.27 235.78 58.55 C235.78 66.04 235.78 73.53 235.77 81.03 C235.77 92.17 235.77 103.31 235.77 114.45 C235.77 133.19 235.77 151.94 235.76 170.68 C235.76 189.24 235.75 207.79 235.75 226.35 C235.75 227.5 235.75 228.66 235.75 229.85 C235.75 235.71 235.75 241.57 235.75 247.43 C235.75 288.93 235.74 330.44 235.73 371.94 C235.72 412.26 235.71 452.59 235.71 492.91 C235.71 494.15 235.71 495.39 235.71 496.67 C235.71 509.16 235.71 521.64 235.71 534.12 C235.7 559.55 235.7 584.98 235.7 610.4 C235.7 612.16 235.7 612.16 235.7 613.95 C235.69 692.01 235.67 770.08 235.66 848.14 C232.18 849.88 228.13 849.28 224.3 849.26 C223.32 849.26 222.34 849.27 221.33 849.27 C218.02 849.27 214.71 849.26 211.4 849.26 C209.03 849.26 206.67 849.26 204.3 849.26 C198.53 849.26 192.77 849.25 187 849.25 C180.29 849.24 173.58 849.24 166.87 849.24 C154.9 849.23 142.93 849.23 130.97 849.22 C119.34 849.21 107.71 849.2 96.08 849.2 C95.37 849.2 94.65 849.2 93.91 849.2 C90.32 849.2 86.73 849.19 83.13 849.19 C53.31 849.18 23.48 849.17 -6.34 849.14 C-7.69 846.46 -7.48 844.39 -7.49 841.38 C-7.49 839.52 -7.49 839.52 -7.5 837.63 C-7.51 836.24 -7.51 834.85 -7.51 833.47 C-7.51 832 -7.52 830.53 -7.53 829.06 C-7.54 824.99 -7.55 820.92 -7.56 816.86 C-7.57 812.44 -7.59 808.03 -7.6 803.62 C-7.63 794.86 -7.65 786.09 -7.67 777.33 C-7.69 770.05 -7.71 762.76 -7.73 755.48 C-7.81 726.97 -7.88 698.46 -7.94 669.95 C-7.96 661.58 -7.98 653.2 -8 644.83 C-8.3 520.56 -8.41 396.3 -7.99 193.91 C-7.97 185.75 -7.96 177.59 -7.94 169.42 C-7.87 141.86 -7.8 114.3 -7.72 86.73 C-7.7 79.7 -7.68 72.66 -7.67 65.63 C-7.64 57.26 -7.62 48.88 -7.59 40.5 C-7.58 36.28 -7.56 32.06 -7.55 27.84 C-7.55 24.01 -7.53 20.18 -7.52 16.35 C-7.51 14.97 -7.51 13.58 -7.51 12.19 C-7.5 10.33 -7.5 8.46 -7.49 6.6 C-7.48 5.56 -7.48 4.52 -7.48 3.46 C-7.21 -1.29 -4.01 0.02 0 0 Z " fill="#FAFCFC" transform="translate(525.344296336174,218.8569324016571)"/>
<path d="M0 0 C4.34 4.59 6.14 8.77 7.12 14.94 C7.29 15.96 7.46 16.98 7.63 18.03 C7.97 20.73 8.07 23.29 8 26 C5.69 26.69 5.69 26.69 3 27 C0.38 25.35 -0.03 23.9 -1 20.94 C-1.76 17.72 -1.76 17.72 -5 16 C-8.78 16.14 -12.48 16.58 -16.24 17 C-20.4 17 -22.42 15.99 -26 14 C-30.06 14.87 -32.26 16.96 -35 20 C-39.88 18.13 -39.88 18.13 -41 17 C-44.74 16.85 -48.06 17.01 -51.75 17.69 C-52.82 17.79 -53.89 17.89 -55 18 C-56.63 16.56 -56.63 16.56 -58 15 C-60.41 14.33 -60.41 14.33 -63 15 C-63.8 15.83 -64.61 16.65 -65.44 17.5 C-68 20 -68 20 -71.06 20.5 C-74.29 19.95 -75.46 18.96 -78 17 C-80.54 16.5 -80.54 16.5 -83 17 C-83.49 17.5 -83.99 17.99 -84.5 18.5 C-86 20 -86 20 -88.5 20.31 C-91 20 -91 20 -94 18 C-98.07 17.66 -99.53 17.69 -103 20 C-107.38 20.5 -109.36 20.43 -113.06 17.94 C-115.87 15.67 -115.87 15.67 -119.25 16.19 C-121.93 16.89 -121.93 16.89 -124 18 C-129.54 18.23 -129.54 18.23 -132 17 C-136.65 16.69 -136.65 16.69 -141 18 C-146.54 18.23 -146.54 18.23 -149 17 C-153.99 16.63 -156.15 16.92 -160 20 C-163.78 20.46 -164.74 20.17 -168 18 C-172.65 17.66 -172.65 17.66 -177 19 C-183.53 19.23 -183.53 19.23 -186 18 C-190.05 17.74 -191.54 17.7 -195 20 C-200.22 20.48 -202.64 19.68 -207 17 C-211.15 16.67 -211.15 16.67 -215 18 C-220.54 18.23 -220.54 18.23 -223 17 C-227.16 16.7 -227.16 16.7 -231 18.06 C-233.9 19.42 -235.96 18.74 -239 18 C-239.33 17.67 -239.66 17.34 -240 17 C-244.98 16.62 -247.16 16.93 -251 20 C-253.5 20.38 -253.5 20.38 -256 20 C-256.64 19.5 -257.28 19.01 -257.94 18.5 C-259.99 16.78 -259.99 16.78 -263 16.44 C-266.31 16.69 -266.31 16.69 -268.06 20 C-269.02 21.48 -269.02 21.48 -270 23 C-272.5 23.75 -272.5 23.75 -275 23 C-275.96 21.55 -275.96 21.55 -276.94 20.06 C-278.71 16.78 -278.71 16.78 -281.94 15.94 C-285.05 15.75 -285.05 15.75 -287.5 17.5 C-290 19 -290 19 -293.19 18.75 C-296 18 -296 18 -298 17 C-302.15 16.75 -302.15 16.75 -306 18 C-311.54 18.23 -311.54 18.23 -314 17 C-316.87 16.42 -316.87 16.42 -320 17 C-322.06 18.83 -323.39 20.73 -325 23 C-328.26 22.64 -329.1 21.89 -331.44 19.44 C-333.74 16.81 -333.74 16.81 -336.56 16.5 C-339.1 16.82 -339.1 16.82 -341 18.62 C-341.66 19.08 -342.32 19.53 -343 20 C-345.31 19.25 -345.31 19.25 -348 18 C-351.46 16.92 -351.46 16.92 -355 17 C-357.92 19.25 -357.92 19.25 -360 22 C-361 23 -361 23 -363.31 23.44 C-364.2 23.29 -365.09 23.15 -366 23 C-366.96 21.55 -366.96 21.55 -367.94 20.06 C-369.71 16.76 -369.71 16.76 -373 16 C-376.19 16 -377.25 16.58 -380 18 C-383.75 18.21 -386.99 18 -390.69 17.31 C-394.62 16.94 -395.07 17.65 -398 20 C-401.5 19.91 -402.85 19.13 -405.56 16.88 C-407.75 14.77 -407.75 14.77 -409.98 15.13 C-412.63 16.27 -413.33 17.58 -414.75 20.06 C-415.18 20.8 -415.61 21.53 -416.05 22.29 C-416.36 22.85 -416.68 23.42 -417 24 C-418.89 23.69 -418.89 23.69 -421 23 C-422.75 19.94 -422.75 19.94 -424 17 C-429.1 17.29 -429.1 17.29 -433.12 20.12 C-434.05 21.05 -434.05 21.05 -435 22 C-437.62 21.94 -437.62 21.94 -440 21 C-440.66 20.01 -441.32 19.02 -442 18 C-445.72 17.49 -447.65 17.82 -451 19.56 C-454.58 21.28 -456.23 21.03 -460 20 C-460.66 19.67 -461.32 19.34 -462 19 C-465.02 19.01 -468.03 19.13 -471.05 19.26 C-474.4 18.97 -475.48 18.11 -478 16 C-482.1 15.58 -483.51 15.67 -487 18 C-491.07 18.34 -492.53 18.31 -496 16 C-498.87 15.25 -498.87 15.25 -502 16 C-504.32 18.11 -506.17 20.46 -508 23 C-510.31 22.75 -510.31 22.75 -513 22 C-513.47 21.32 -513.95 20.64 -514.44 19.94 C-515.91 17.69 -515.91 17.69 -518.94 17.44 C-522.2 17.69 -522.2 17.69 -524 20.5 C-526 23 -526 23 -528.94 23.62 C-532.91 22.81 -534.18 20.82 -537 18 C-541.14 17.42 -542.48 17.65 -546 20 C-548.5 20.31 -548.5 20.31 -551 20 C-551.71 19.26 -551.71 19.26 -552.44 18.5 C-554.01 16.67 -554.01 16.67 -557.06 16.75 C-559.93 16.81 -559.93 16.81 -562 18 C-565.72 18.15 -569.02 18 -572.69 17.31 C-576.63 16.94 -577.06 17.63 -580 20 C-584.1 20.42 -585.51 20.33 -589 18 C-592 17.58 -592 17.58 -595 18 C-595.52 18.52 -596.03 19.03 -596.56 19.56 C-597.04 20.04 -597.51 20.51 -598 21 C-600.44 20.94 -600.44 20.94 -603 20 C-603.66 19.3 -604.32 18.6 -605 17.88 C-606.84 15.75 -606.84 15.75 -609.44 15.88 C-612.98 17.43 -614.59 20.03 -617 23 C-619.12 24.06 -619.12 24.06 -621 24 C-623.73 22.25 -624.23 20.42 -625.44 17.38 C-626.64 14.02 -626.64 14.02 -628.81 12.75 C-631.87 13.1 -633.23 14.91 -635.43 16.91 C-637 18 -637 18 -640.06 17.94 C-643 17 -643 17 -645.56 15.75 C-646.77 15.38 -646.77 15.38 -648 15 C-649.68 15.97 -651.35 16.98 -653 18 C-656.75 18.25 -656.75 18.25 -660 18 C-660.33 17.67 -660.66 17.34 -661 17 C-664.37 16.42 -664.37 16.42 -668 17 C-670.16 19.91 -670.16 19.91 -672 23 C-674.75 23.88 -674.75 23.88 -677 24 C-677.8 22.52 -677.8 22.52 -678.62 21 C-680.69 17.7 -680.69 17.7 -684.06 17.5 C-687.18 17.83 -687.18 17.83 -690 20 C-694.07 20.34 -695.53 20.31 -699 18 C-702.82 18.17 -704.59 18.66 -707.56 21.12 C-710 23 -710 23 -712.5 23.12 C-715 22 -715 22 -717.38 18.88 C-718.24 17.93 -719.11 16.98 -720 16 C-722.77 16.02 -722.77 16.02 -724.7 16.58 C-729.01 17.37 -733.44 16.85 -737.79 16.64 C-741.65 17.07 -742.51 18.16 -745 21 C-748.39 20.84 -749.58 20.42 -752 18 C-754.87 17.42 -754.87 17.42 -758 18 C-759.69 19.65 -761.36 21.31 -763 23 C-767.21 22.67 -769.35 20.01 -772.22 17.18 C-773.93 15.78 -773.93 15.78 -776.05 16.16 C-779.02 17.44 -780.83 19.65 -783 22 C-786.06 20.95 -788 20 -790.44 17.81 C-792.9 15.68 -792.9 15.68 -796.12 16.12 C-799.16 16.9 -799.16 16.9 -802 19 C-804.96 18.7 -807.33 18.33 -810 17 C-814.15 16.75 -814.15 16.75 -818 18 C-822.05 18.26 -823.54 18.3 -827 16 C-831.21 16.21 -831.21 16.21 -834.5 18.56 C-836 20 -836 20 -839 20.31 C-842 20 -842 20 -845 18 C-849.15 17.71 -849.15 17.71 -853 19 C-856.56 19.12 -856.56 19.12 -860 19 C-860.33 18.67 -860.66 18.34 -861 18 C-866.33 17.66 -866.33 17.66 -871 20 C-875.38 20.5 -877.36 20.43 -881.06 17.94 C-883.87 15.67 -883.87 15.67 -887.25 16.19 C-889.93 16.89 -889.93 16.89 -892 18 C-897.54 18.23 -897.54 18.23 -900 17 C-904.65 16.69 -904.65 16.69 -909 18 C-914.54 18.23 -914.54 18.23 -917 17 C-921.99 16.63 -924.15 16.92 -928 20 C-931.78 20.46 -932.74 20.17 -936 18 C-940.65 17.66 -940.65 17.66 -945 19 C-951.53 19.23 -951.53 19.23 -954 18 C-958.05 17.74 -959.54 17.7 -963 20 C-968.22 20.48 -970.64 19.68 -975 17 C-979.15 16.67 -979.15 16.67 -983 18 C-988.54 18.23 -988.54 18.23 -991 17 C-995.16 16.7 -995.16 16.7 -999 18.06 C-1001.9 19.42 -1003.96 18.74 -1007 18 C-1007.33 17.67 -1007.66 17.34 -1008 17 C-1011.33 16.42 -1011.33 16.42 -1015 17 C-1017.13 18.82 -1018.39 20.66 -1020 23 C-1022.31 22.75 -1022.31 22.75 -1025 22 C-1025.49 21.32 -1025.99 20.64 -1026.5 19.94 C-1027.86 17.76 -1027.86 17.76 -1030.44 17.44 C-1033.98 18.22 -1034.81 20.2 -1037 23 C-1039.75 23.81 -1039.75 23.81 -1042 24 C-1042.6 23.24 -1043.2 22.47 -1043.81 21.69 C-1044.9 20.36 -1044.9 20.36 -1046 19 C-1046.45 18.38 -1046.91 17.76 -1047.38 17.12 C-1049.07 15.71 -1049.07 15.71 -1051.94 16.12 C-1055.02 16.79 -1055.02 16.79 -1057.06 18.69 C-1058.02 19.34 -1058.02 19.34 -1059 20 C-1062.17 19.15 -1064.26 17.83 -1067 16 C-1069.79 15.9 -1072.52 16.07 -1075.31 16.22 C-1078.49 15.96 -1079.51 14.88 -1082 13 C-1084.16 12.92 -1084.16 12.92 -1086 14 C-1087.17 15.78 -1087.17 15.78 -1087.94 17.94 C-1089.68 21.83 -1089.68 21.83 -1092.75 23.5 C-1093.86 23.75 -1093.86 23.75 -1095 24 C-1095.74 23.22 -1096.48 22.43 -1097.25 21.62 C-1099.54 19.44 -1101.05 18.02 -1104 17 C-1106.17 17.8 -1106.17 17.8 -1106.71 19.89 C-1106.93 20.67 -1107.15 21.45 -1107.38 22.25 C-1108.62 26.25 -1110.26 28.8 -1113 32 C-1113.87 33.87 -1113.87 33.87 -1114 36 C-1112.99 38.15 -1112.99 38.15 -1111.5 40.25 C-1109.28 44.02 -1108.5 46.45 -1109.4 50.91 C-1110.08 53.27 -1110.85 55.6 -1111.62 57.94 C-1113.55 64.08 -1113.43 69.25 -1110.44 75 C-1107.36 81.43 -1109.05 87.42 -1111 94 C-1111.28 97.89 -1111.03 101.15 -1110 104.88 C-1107.92 112.73 -1108.89 118.2 -1112.09 125.58 C-1113.52 129.4 -1113.54 131.95 -1113 136 C-1112.32 136.97 -1111.64 137.94 -1110.94 138.94 C-1108.55 142.71 -1108.75 144.56 -1109.44 148.84 C-1110.2 151.78 -1111.65 154.29 -1113 157 C-1113.6 161.51 -1112.95 164.38 -1111 168.38 C-1108.78 173.05 -1108.09 176.88 -1109 182 C-1109.97 184.57 -1111.06 187.06 -1112.17 189.57 C-1113.5 193.46 -1112.96 196.03 -1112 200 C-1111.49 200.97 -1111.49 200.97 -1110.96 201.96 C-1108.86 206.43 -1109.54 211.62 -1111.06 216.19 C-1112.92 223.76 -1111.62 231.82 -1109.75 239.31 C-1108.72 243.83 -1109.62 246.54 -1111.32 250.76 C-1112.77 255.54 -1111.54 260.38 -1110 265 C-1109.88 267.27 -1109.82 269.54 -1109.81 271.81 C-1109.8 273.02 -1109.78 274.22 -1109.77 275.46 C-1110 279 -1110.82 281.67 -1112 285 C-1112.57 289.44 -1112.56 292.95 -1110.44 296.94 C-1107.85 302.46 -1109.47 308.3 -1111.06 314 C-1113.06 321.46 -1112.55 327.19 -1109 334 C-1108.11 339.61 -1109.44 342.98 -1112 348 C-1112.51 352.45 -1111.81 355.82 -1110.44 360 C-1109.05 364.38 -1108.56 367.5 -1110 372 C-1112.5 374.31 -1112.5 374.31 -1115 376 C-1117.25 380.5 -1116.72 386.14 -1116 391 C-1114.39 393.64 -1112.57 395.73 -1110.5 398.01 C-1109 400 -1109 400 -1108.88 403.69 C-1110 407 -1110 407 -1111.56 410 C-1113.36 413.74 -1113.49 415.87 -1113 420 C-1112.37 421.33 -1111.71 422.65 -1111.02 423.96 C-1108.41 429.68 -1108.3 435.16 -1108.19 441.38 C-1108.15 442.43 -1108.11 443.49 -1108.07 444.59 C-1107.49 464.92 -1107.49 464.92 -1114.81 473 C-1116.23 475.02 -1116.23 475.02 -1116.06 477.81 C-1114.83 481.52 -1113.11 483.52 -1110.46 486.33 C-1109 488 -1109 488 -1107.69 490.81 C-1105 494.3 -1101.21 494.41 -1097 495 C-1096.38 496.88 -1096.38 496.88 -1096 499 C-1098.51 501.51 -1100.03 501.52 -1103.5 502.06 C-1107.38 502.63 -1107.38 502.63 -1111 504 C-1116 504.45 -1118.59 503.2 -1123 501 C-1125.57 500.48 -1128.13 500.07 -1130.73 499.72 C-1133.68 498.78 -1134.47 497.65 -1136 495 C-1137.12 491.93 -1137.47 489.24 -1137 486 C-1135.39 483.66 -1133.66 481.84 -1131.57 479.92 C-1129.58 477.49 -1129.7 476.06 -1130 473 C-1133.19 471.61 -1133.19 471.61 -1137 471 C-1140.42 472.72 -1140.42 472.72 -1143 475 C-1145.4 474.04 -1146.74 473.42 -1148.12 471.2 C-1150.36 465.62 -1149.14 460.36 -1147 455 C-1146.47 450.02 -1147.06 445.39 -1148.06 440.5 C-1149.04 435.56 -1149.34 430.91 -1148 426 C-1147.34 425.34 -1146.68 424.68 -1146 424 C-1144.06 424.12 -1144.06 424.12 -1142 425 C-1140.25 427.06 -1140.25 427.06 -1139 429 C-1135.83 428.72 -1133.65 428.52 -1131.12 426.5 C-1129.4 422.67 -1129.46 419.13 -1130 415 C-1131.55 410.93 -1132.36 409.42 -1136 407 C-1138.29 406.76 -1138.29 406.76 -1140.69 406.88 C-1141.5 406.89 -1142.3 406.91 -1143.14 406.93 C-1143.75 406.95 -1144.37 406.98 -1145 407 C-1145.71 404.75 -1145.71 404.75 -1146 402 C-1142.51 396.75 -1137 393.05 -1131.57 390.01 C-1129.83 389.08 -1129.83 389.08 -1129 387 C-1128.79 383.36 -1128.82 380.53 -1130 377.06 C-1131.74 371.72 -1131.32 366.97 -1130 361.62 C-1128.42 355.11 -1127.89 349.03 -1131 343 C-1131.38 338.38 -1131.46 335.95 -1129.44 331.75 C-1126.29 325.19 -1128.5 317.16 -1130.62 310.56 C-1131.05 309.42 -1131.05 309.42 -1131.48 308.25 C-1132.39 304.32 -1131.39 301.66 -1129.38 298.25 C-1127.3 293.34 -1127.93 288.93 -1129.75 283.96 C-1130.15 282.99 -1130.15 282.99 -1130.56 282 C-1133.34 275 -1132.26 269.41 -1129.94 262.38 C-1128.27 257.3 -1127.37 254.11 -1129 249 C-1129.52 248.34 -1130.03 247.68 -1130.56 247 C-1132.75 243.95 -1132.38 241.66 -1132 238 C-1131.51 237.1 -1131.01 236.21 -1130.5 235.28 C-1128.72 231.39 -1128.56 228.06 -1128.62 223.88 C-1128.61 223.17 -1128.6 222.47 -1128.59 221.75 C-1128.61 217.42 -1129.22 215.25 -1132 212 C-1132.66 205.04 -1132.66 205.04 -1130.5 201.65 C-1127.77 196.83 -1128.47 191.38 -1129 186 C-1130.42 182.75 -1130.42 182.75 -1132 180 C-1132.67 174.08 -1131.71 171.07 -1128.91 165.93 C-1127.42 162.76 -1127.52 160.44 -1128 157 C-1128.65 155.53 -1129.34 154.07 -1130.06 152.62 C-1132.38 147.8 -1132.37 144.14 -1131 139 C-1130.46 137.8 -1129.93 136.61 -1129.38 135.38 C-1127.71 131.3 -1127.83 129.22 -1129 125 C-1130.54 122.05 -1130.54 122.05 -1133 120 C-1134.99 119.6 -1136.99 119.26 -1139 119 C-1141.54 129.53 -1142.38 139.19 -1142 150 C-1143.32 150.33 -1144.64 150.66 -1146 151 C-1148.13 144.62 -1148.13 144.62 -1147.56 141.84 C-1146.61 137.01 -1146.96 132.12 -1147.04 127.21 C-1147.08 123.28 -1147 119.52 -1146.44 115.62 C-1146 111.99 -1146.56 109.79 -1147.59 106.34 C-1148.31 102.23 -1147.7 98.18 -1147.28 94.06 C-1147.06 91.64 -1147 89.42 -1147.12 87 C-1146.97 83.35 -1146.21 81.89 -1144 79 C-1141.19 77.74 -1141.19 77.74 -1138 76.88 C-1132.78 75.56 -1132.78 75.56 -1129 72 C-1129.18 68.72 -1129.44 66.04 -1131.02 63.12 C-1132.59 59.73 -1132.46 56.25 -1132.66 52.56 C-1132.84 49.76 -1132.84 49.76 -1135 47 C-1137.42 46.95 -1137.42 46.95 -1140 48 C-1141.87 51.47 -1141.87 51.47 -1143 55 C-1144.32 55 -1145.64 55 -1147 55 C-1148 54 -1148 54 -1148.13 52.02 C-1148.07 32.17 -1148.07 32.17 -1146 23 C-1145.01 23.33 -1144.02 23.66 -1143 24 C-1142.38 25.78 -1142.38 25.78 -1142 27.94 C-1141.68 30.07 -1141.68 30.07 -1141 32 C-1138.05 34.37 -1138.05 34.37 -1134 34 C-1134.66 30.39 -1134.66 30.39 -1136 27 C-1136.41 22.56 -1136.38 18.37 -1135.19 14.06 C-1132.07 11.12 -1128.68 10.82 -1124.57 9.88 C-1121.67 9.18 -1121.67 9.18 -1120 5.94 C-1117.68 2.53 -1117.07 2.42 -1113.19 1.62 C-1101.97 0.16 -1090.59 0.96 -1079.35 1.73 C-1078.19 1.8 -1078.19 1.8 -1077.02 1.88 C-1076.34 1.93 -1075.66 1.97 -1074.96 2.02 C-1072.82 2 -1071.07 1.52 -1069 1 C-1067.46 0.91 -1065.92 0.87 -1064.38 0.87 C-1063.5 0.87 -1062.63 0.86 -1061.73 0.86 C-1060.83 0.87 -1059.93 0.87 -1059 0.88 C-1058.1 0.87 -1057.2 0.87 -1056.27 0.86 C-1054.96 0.87 -1054.96 0.87 -1053.62 0.87 C-1052.83 0.87 -1052.04 0.87 -1051.23 0.87 C-1049 1 -1049 1 -1047.35 1.51 C-1043.95 2.22 -1040.62 2.01 -1037.17 1.89 C-1035.43 1.84 -1033.68 1.8 -1031.94 1.75 C-1030.98 1.72 -1030.02 1.7 -1029.03 1.67 C-991.21 0.64 -953.37 0.71 -915.53 0.66 C-903.19 0.64 -890.84 0.61 -878.5 0.55 C-869.7 0.51 -860.9 0.49 -852.1 0.49 C-846.89 0.49 -841.67 0.47 -836.46 0.44 C-831.59 0.41 -826.72 0.4 -821.86 0.42 C-820.08 0.42 -818.31 0.41 -816.53 0.39 C-800.29 0.24 -800.29 0.24 -792.95 4.87 C-789.44 6.9 -786.99 6.58 -783 6 C-781.79 5.37 -780.61 4.7 -779.44 4 C-774.33 1.08 -768.88 1.75 -763.2 1.96 C-760.1 2.24 -760.1 2.24 -758 1 C-755.41 0.95 -752.84 0.96 -750.25 1 C-743.95 1.07 -737.68 0.97 -731.38 0.71 C-730.39 0.67 -730.39 0.67 -729.39 0.63 C-726.09 0.49 -722.79 0.35 -719.5 0.18 C-711.33 -0.16 -704.2 -0.23 -696.81 3.69 C-693.34 5.31 -691.63 5.05 -688 4 C-686.51 3.01 -686.51 3.01 -685 2 C-672.99 0.08 -660.3 0.85 -648.18 0.85 C-645.9 0.85 -643.61 0.85 -641.33 0.84 C-635.18 0.84 -629.02 0.83 -622.86 0.83 C-619.02 0.83 -615.17 0.83 -611.32 0.83 C-598.59 0.82 -585.85 0.81 -573.12 0.81 C-572.09 0.81 -572.09 0.81 -571.04 0.81 C-570.36 0.81 -569.67 0.81 -568.97 0.81 C-557.84 0.82 -546.7 0.81 -535.57 0.79 C-524.12 0.78 -512.67 0.77 -501.22 0.77 C-494.8 0.77 -488.38 0.77 -481.96 0.76 C-475.93 0.75 -469.91 0.75 -463.88 0.76 C-461.67 0.76 -459.45 0.75 -457.24 0.75 C-454.22 0.74 -451.21 0.75 -448.19 0.75 C-446.87 0.75 -446.87 0.75 -445.52 0.74 C-444.72 0.74 -443.91 0.75 -443.08 0.75 C-442.38 0.75 -441.69 0.75 -440.97 0.75 C-439 1 -439 1 -436.94 2.04 C-433.88 3.55 -431.32 2.56 -428 2 C-403.04 0.07 -377.74 0.71 -352.72 0.65 C-347.79 0.64 -342.86 0.61 -337.93 0.57 C-331.9 0.52 -325.87 0.49 -319.84 0.49 C-317.57 0.48 -315.29 0.46 -313.02 0.44 C-309.85 0.41 -306.68 0.41 -303.51 0.42 C-302.59 0.4 -301.67 0.38 -300.72 0.37 C-294.64 0.42 -290.51 1.83 -285.25 4.88 C-281.61 6.69 -279 6.48 -275 6 C-274.16 5.49 -274.16 5.49 -273.3 4.97 C-269.23 3.25 -264.72 3.93 -260.38 4.08 C-255.73 4.18 -252.43 3.52 -248 2 C-239.22 0.54 -230.22 0.84 -221.35 0.84 C-219.69 0.83 -218.02 0.83 -216.35 0.82 C-211.86 0.81 -207.36 0.8 -202.86 0.8 C-200.04 0.8 -197.23 0.79 -194.41 0.79 C-185.6 0.77 -176.79 0.76 -167.97 0.76 C-157.82 0.76 -147.66 0.74 -137.5 0.71 C-129.63 0.69 -121.76 0.68 -113.89 0.68 C-109.2 0.68 -104.51 0.67 -99.81 0.65 C-95.4 0.64 -90.99 0.63 -86.58 0.64 C-84.97 0.64 -83.35 0.64 -81.73 0.63 C-79.53 0.62 -77.32 0.62 -75.11 0.63 C-73.87 0.63 -72.64 0.63 -71.37 0.63 C-66.42 1.17 -63.08 3.28 -59 6 C-51.25 6.87 -44.39 6.47 -37.38 2.97 C-30.98 0.36 -24 0.93 -17.23 1.13 C-11.32 1.22 -5.47 -2.16 0 0 Z " fill="#003A75" transform="translate(1191,47)"/>
<path d="M0 0 C13.53 0 27.06 0 41 0 C41 4.62 41 9.24 41 14 C36.46 13.85 36.46 13.85 31.92 13.71 C29.07 13.79 29.07 13.79 27.18 15.07 C24.02 20.25 24.86 27.75 24.88 33.62 C24.88 34.57 24.88 35.53 24.88 36.51 C24.88 39.72 24.88 42.92 24.89 46.13 C24.89 48.45 24.89 50.77 24.89 53.09 C24.89 59.47 24.89 65.84 24.9 72.22 C24.9 78.39 24.91 84.56 24.91 90.73 C24.91 103.36 24.92 115.98 24.92 128.61 C24.94 145.84 24.94 163.08 24.95 180.32 C24.95 188.35 24.95 196.38 24.95 204.42 C24.95 205.22 24.95 206.02 24.96 206.85 C24.96 225.99 24.97 245.12 24.98 264.26 C24.98 265.51 24.98 265.51 24.98 266.79 C24.99 279.53 24.99 292.26 25 305 C25.01 318.58 25.01 332.16 25.02 345.74 C25.02 346.58 25.02 347.42 25.02 348.28 C25.03 367.38 25.04 386.48 25.05 405.58 C25.05 406.39 25.05 407.19 25.05 408.02 C25.05 416.03 25.05 424.04 25.05 432.06 C25.06 449.28 25.06 466.5 25.08 483.72 C25.09 496.27 25.09 508.82 25.09 521.37 C25.1 528.17 25.1 534.97 25.11 541.77 C25.11 548 25.11 554.22 25.11 560.44 C25.11 562.7 25.12 564.95 25.12 567.21 C25.12 570.27 25.12 573.32 25.12 576.38 C25.12 577.26 25.13 578.14 25.13 579.05 C25.1 591.9 25.1 591.9 22 595 C19.44 595.19 19.44 595.19 17 595 C16 594 16 594 15.97 592.03 C16.02 590.78 16.02 590.78 16.06 589.5 C16.13 584.42 15.32 579.89 14 575 C13.34 575 12.68 575 12 575 C11.32 576.67 11.32 576.67 10.62 578.38 C9 582 9 582 7 584 C4.84 584.2 4.84 584.2 2.38 584.12 C1.56 584.11 0.74 584.09 -0.1 584.07 C-1.04 584.04 -1.04 584.04 -2 584 C-2.33 582.68 -2.66 581.36 -3 580 C-2.26 579.4 -2.26 579.4 -1.5 578.79 C-0.86 578.26 -0.22 577.73 0.44 577.19 C1.39 576.4 1.39 576.4 2.37 575.61 C4.63 573.38 5 571.58 5.02 568.45 C4.97 567.44 4.93 566.44 4.88 565.41 C4.83 564.29 4.78 563.18 4.73 562.03 C4.65 560.28 4.65 560.28 4.56 558.5 C4.46 556.22 4.35 553.94 4.25 551.66 C4.2 550.54 4.15 549.43 4.1 548.29 C3.98 544.25 4.06 540.22 4.21 536.18 C4.19 533.7 4.19 533.7 1.69 531.44 C0.36 530.73 0.36 530.73 -1 530 C-1.99 529.34 -2.98 528.68 -4 528 C-3.25 521.25 -3.25 521.25 -1 519 C-1 517.68 -1 516.36 -1 515 C-3.42 512.73 -3.42 512.73 -6 511 C-4.88 507.74 -4.04 507.02 -0.94 505.31 C0.03 504.88 1 504.45 2 504 C4.11 501.89 3.62 498.39 3.63 495.58 C2.8 492.16 1.49 491.37 -1.44 489.5 C-2.26 489.06 -3.08 488.61 -3.93 488.16 C-6 487 -6 487 -7 485 C-7.53 478.96 -7.46 472.28 -3.69 467.25 C-2 466 -2 466 0.69 464.75 C3.37 463.13 3.37 463.13 3.62 459.62 C2.85 455.14 1.39 453.92 -2 451 C-5.53 447.44 -5.46 443.85 -5.48 439.09 C-5.49 438.32 -5.51 437.55 -5.52 436.75 C-5.57 434.29 -5.6 431.83 -5.62 429.38 C-5.67 426.15 -5.73 422.93 -5.79 419.71 C-5.8 418.93 -5.81 418.15 -5.83 417.35 C-5.9 413.44 -6.09 409.63 -6.59 405.74 C-7.48 398.18 -6.29 390.53 -5.58 382.99 C-5.48 381.79 -5.38 380.59 -5.28 379.36 C-5.18 378.28 -5.08 377.2 -4.97 376.09 C-4.82 372.99 -4.82 372.99 -6.05 370.23 C-6.99 367.04 -6.98 365.62 -6.57 362.42 C-5.99 357.26 -5.86 352.2 -5.87 347.01 C-5.87 346.07 -5.87 345.12 -5.87 344.15 C-5.86 341.07 -5.86 337.99 -5.87 334.91 C-5.87 332.76 -5.87 330.6 -5.86 328.45 C-5.86 323.96 -5.86 319.46 -5.87 314.97 C-5.88 309.2 -5.87 303.44 -5.87 297.67 C-5.86 293.23 -5.86 288.79 -5.87 284.36 C-5.87 282.23 -5.87 280.1 -5.86 277.98 C-5.86 275.01 -5.87 272.05 -5.87 269.09 C-5.87 268.21 -5.87 267.33 -5.86 266.42 C-5.88 263.03 -5.92 260.24 -7 257 C-7.09 255.5 -7.13 254 -7.12 252.5 C-7.13 251.73 -7.13 250.95 -7.13 250.16 C-7 248 -7 248 -6 245 C-5.72 238.58 -5.76 232.18 -6.62 225.81 C-7.16 221.28 -6.42 217.5 -5.48 213.07 C-4.73 208.24 -4.91 203.45 -5.03 198.58 C-5 195 -5 195 -4.41 191.52 C-3.93 187.44 -4.57 184.43 -5.5 180.44 C-7.13 172.77 -7.14 165.79 -6 158 C-5.9 157.25 -5.79 156.49 -5.69 155.71 C-4.93 152.01 -3.9 150.92 -0.88 148.56 C0.55 147.79 0.55 147.79 2 147 C1.88 144.63 1.88 144.63 1 142 C0.17 141.38 -0.65 140.76 -1.5 140.12 C-4 138 -4 138 -5.06 134.5 C-5 131 -5 131 -3.38 128.81 C-1.71 127.54 0 126.34 1.75 125.19 C4.41 123.08 4.41 123.08 4.31 119.25 C4.16 117.64 4.16 117.64 4 116 C3.3 115.78 2.6 115.56 1.88 115.34 C-5.54 112.75 -5.54 112.75 -7.75 109.12 C-8 106 -8 106 -7.02 103.26 C-5.86 99.56 -5.87 96.61 -6 92.75 C-6.12 89.05 -6.12 89.05 -6 86 C-3.31 83.31 -0.62 82.94 3 82 C4.18 74.74 4.05 67.65 3.81 60.31 C3.79 59.1 3.78 57.89 3.76 56.65 C3.72 55.48 3.68 54.31 3.64 53.11 C3.62 52.06 3.59 51.01 3.56 49.92 C2.88 46.37 1.43 44.62 -1 42 C-0.26 40.53 0.49 39.08 1.25 37.62 C1.88 36.41 1.88 36.41 2.52 35.16 C4.14 32.79 5.35 32.03 8 31 C10.66 33.66 10.35 35.24 10.56 38.94 C10.76 42.24 10.95 44.85 12 48 C12.99 48 13.98 48 15 48 C16.35 45.3 16.13 43.17 16.13 40.15 C16.13 38.99 16.14 37.83 16.14 36.63 C16.13 34.8 16.13 34.8 16.12 32.94 C16.13 31.71 16.13 30.49 16.14 29.23 C16.13 27.49 16.13 27.49 16.13 25.71 C16.13 24.64 16.13 23.57 16.13 22.47 C16.28 20.06 16.28 20.06 15 19 C11.93 18.72 8.86 18.55 5.79 18.38 C3 18 3 18 1 16 C0.71 15.01 0.42 14.02 0.12 13 C-0.67 9.9 -0.67 9.9 -3 8.88 C-3.99 8.44 -3.99 8.44 -5 8 C-6.25 5.88 -6.25 5.88 -7 4 C-6.03 3.71 -5.06 3.42 -4.06 3.12 C-0.89 2.36 -0.89 2.36 0 0 Z " fill="#003A75" transform="translate(1239,0)"/>
<path d="M0 0 C3.12 0.31 3.12 0.31 5 1.75 C6.45 5.05 6.27 7.73 6.04 11.29 C5.91 13.54 5.91 13.54 8.12 15.31 C10.55 15.45 10.55 15.45 13.12 14.31 C13.93 13.32 14.73 12.33 15.56 11.31 C18.12 8.31 18.12 8.31 21.25 7.38 C24.12 7.31 24.12 7.31 27.12 8.31 C29.9 8.3 32.66 8.18 35.43 8.05 C38.59 8.36 39.86 9.13 42.12 11.31 C42.81 13.63 42.81 13.63 42.12 16.31 C39.5 19.15 36.59 21.58 33.12 23.31 C30.88 23.36 28.63 23.4 26.38 23.44 C21.35 23.63 21.35 23.63 17.04 25.9 C16.08 27.14 15.16 28.41 14.27 29.7 C13.12 31.31 13.12 31.31 10.75 32.56 C7.15 32.22 5.03 30.5 2.19 28.34 C0.13 27.11 0.13 27.11 -2.42 27.38 C-5.54 28.57 -6.39 29.87 -8.12 32.69 C-8.88 33.87 -8.88 33.87 -9.64 35.09 C-12.1 39.52 -11.89 43.23 -11.56 48.12 C-11.53 48.82 -11.49 49.52 -11.46 50.24 C-11.25 53.58 -10.89 56.27 -9.82 59.46 C-8.77 62.62 -8.78 64.77 -9.12 68.06 C-9.21 69.01 -9.3 69.95 -9.39 70.92 C-9.88 73.31 -9.88 73.31 -11.88 75.31 C-12.23 78.76 -12.32 82.18 -12.43 85.64 C-12.88 89.31 -12.88 89.31 -14.38 92.44 C-16.89 97.81 -16.35 103.76 -16.31 109.56 C-16.33 110.75 -16.35 111.93 -16.37 113.15 C-16.37 114.28 -16.37 115.41 -16.37 116.58 C-16.37 117.61 -16.37 118.64 -16.38 119.7 C-16.13 122.46 -16.13 122.46 -13.87 123.98 C-13.21 124.42 -12.55 124.86 -11.88 125.31 C-11.44 128.38 -11.44 128.38 -11.88 131.31 C-14.88 133.31 -14.88 133.31 -17.5 133.81 C-18.28 133.98 -19.07 134.14 -19.88 134.31 C-21.85 138.26 -21.33 143.01 -20.88 147.31 C-19.98 149.52 -18.9 151.47 -17.71 153.53 C-16.37 156.39 -16.86 158.41 -17.88 161.31 C-18.64 161.94 -18.64 161.94 -19.42 162.58 C-22.71 166.49 -21.08 173.47 -20.88 178.31 C-20.81 180.04 -20.81 180.04 -20.75 181.8 C-20.76 187.33 -20.76 187.33 -18.36 192 C-17.87 192.43 -17.38 192.86 -16.88 193.31 C-16.44 195.69 -16.44 195.69 -16.88 198.31 C-17.56 199.12 -18.24 199.92 -18.94 200.75 C-21.19 203.18 -21.19 203.18 -20.81 206.38 C-20.06 209.31 -20.06 209.31 -18.31 211.31 C-16.26 214.16 -16.39 215.87 -16.88 219.31 C-17.54 220.17 -18.2 221.02 -18.88 221.91 C-21.52 226.42 -21.36 229.82 -21.19 234.94 C-21.18 235.78 -21.17 236.63 -21.16 237.5 C-21.09 241.3 -20.8 244.63 -19.88 248.31 C-19.65 254.86 -19.65 254.86 -20.88 257.31 C-20.99 259.2 -21.03 261.08 -21.05 262.97 C-21.06 264.15 -21.08 265.34 -21.09 266.56 C-21.1 267.85 -21.11 269.13 -21.11 270.46 C-21.13 272.43 -21.13 272.43 -21.14 274.45 C-21.15 277.24 -21.16 280.03 -21.17 282.82 C-21.18 286.39 -21.22 289.97 -21.26 293.54 C-21.29 296.95 -21.29 300.36 -21.3 303.77 C-21.33 305.69 -21.33 305.69 -21.35 307.65 C-21.35 308.84 -21.35 310.04 -21.34 311.27 C-21.35 312.84 -21.35 312.84 -21.36 314.45 C-20.76 318.02 -19.22 319.61 -16.88 322.31 C-16.18 326.39 -16.54 327.83 -18.94 331.25 C-21.22 334.21 -21.22 334.21 -20.69 337.88 C-20.2 339.94 -19.7 342 -19.19 344.06 C-18.88 346.31 -18.88 346.31 -20.88 349.31 C-21.06 352.71 -21 355.73 -20.31 359.06 C-19.88 361.31 -19.88 361.31 -20.88 364.31 C-21.45 367.78 -21.65 370.87 -20.88 374.31 C-18.54 376.92 -15.93 378.63 -12.88 380.31 C-13.12 382.69 -13.12 382.69 -13.88 385.31 C-15.19 386.01 -16.53 386.68 -17.88 387.31 C-21.01 391.4 -21.31 394.67 -21.31 399.75 C-21.34 401.67 -21.34 401.67 -21.37 403.62 C-20.8 407.88 -19.24 409.8 -16.88 413.31 C-16.37 416.89 -16.37 416.89 -16.31 420.56 C-16.31 424.16 -16.31 424.16 -15.88 427.31 C-14.88 427.97 -13.89 428.63 -12.88 429.31 C-12.11 432.71 -12.19 435.91 -12.88 439.31 C-15.56 441.5 -15.56 441.5 -18.88 443.31 C-20.33 445.08 -21.56 446.9 -22.8 448.82 C-23.88 450.31 -23.88 450.31 -25.88 451.31 C-27.88 451.4 -29.88 451.43 -31.89 451.43 C-33.15 451.43 -34.41 451.43 -35.71 451.43 C-37.09 451.42 -38.47 451.42 -39.85 451.41 C-41.26 451.41 -42.67 451.41 -44.08 451.41 C-47.79 451.4 -51.5 451.39 -55.22 451.38 C-59 451.37 -62.79 451.37 -66.58 451.36 C-74.01 451.35 -81.44 451.33 -88.88 451.31 C-89.54 449.99 -90.19 448.67 -90.88 447.31 C-88.27 444.71 -87.07 445.01 -83.43 444.9 C-82.3 444.86 -81.17 444.82 -80.01 444.78 C-78.79 444.75 -77.57 444.72 -76.31 444.69 C-75.07 444.65 -73.83 444.61 -72.55 444.57 C-60.33 444.23 -48.1 444.21 -35.88 444.31 C-35.88 443.32 -35.88 442.33 -35.88 441.31 C-41.25 439.56 -46.18 438.92 -51.81 438.69 C-52.59 438.65 -53.37 438.61 -54.17 438.57 C-56.07 438.48 -57.97 438.39 -59.88 438.31 C-60.44 436.38 -60.44 436.38 -60.88 434.31 C-59.05 432.48 -56.09 433.01 -53.62 432.88 C-46.62 432.43 -39.79 431.49 -32.88 430.31 C-32.88 429.32 -32.88 428.33 -32.88 427.31 C-34.51 426.26 -36.18 425.26 -37.88 424.31 C-39.19 421.68 -39.24 419.3 -39.56 416.38 C-40.44 410.33 -42.3 405.96 -45.42 400.75 C-46.67 398.65 -47.66 396.64 -48.56 394.38 C-49.65 391.37 -49.65 391.37 -51.43 389.62 C-53.8 385.84 -53.31 381.58 -53.31 377.24 C-53.45 372.22 -54.56 370 -57.88 366.31 C-57.88 362.48 -57.33 360.84 -54.81 357.94 C-52.68 355.05 -52.18 353.09 -52.34 349.51 C-53.59 344.37 -57.19 339.99 -60.88 336.31 C-61.38 334 -61.38 334 -60.88 331.31 C-59.42 330.05 -57.95 328.79 -56.41 327.62 C-53.08 324.78 -51.99 321.43 -51.56 317.19 C-52.05 312.7 -53.13 310.98 -56.5 307.94 C-58.88 305.31 -58.88 305.31 -59.56 302.56 C-58.84 299.16 -57.87 297.66 -55.88 294.88 C-53.67 291.77 -52.89 290.43 -52.31 286.56 C-53.06 282.23 -54.71 279.66 -57.56 276.38 C-59.43 273.44 -59.35 271.74 -58.88 268.31 C-58.22 267.32 -57.56 266.33 -56.88 265.31 C-53.56 260.04 -53.92 253.28 -54.88 247.31 C-56.81 244.56 -56.81 244.56 -58.88 242.31 C-58.97 238.5 -57.87 237.31 -55.31 234.44 C-52.67 231.55 -52.67 231.55 -52.31 228.19 C-53.21 221.98 -55.06 215.72 -58.02 210.16 C-59.47 207.03 -58.68 204.58 -57.88 201.31 C-55.88 198.5 -55.88 198.5 -53.88 196.31 C-52.46 193.49 -52.63 191.44 -52.88 188.31 C-53.36 187.6 -53.85 186.88 -54.35 186.14 C-57.74 179.86 -57.24 170.03 -55.27 163.22 C-52.48 156.01 -48.19 149.88 -42.88 144.31 C-41.02 140.6 -41.43 136.37 -41.88 132.31 C-43.23 128.65 -45.5 125.78 -47.94 122.75 C-49.88 120.31 -49.88 120.31 -51.31 117.31 C-53.05 113.98 -55.12 111.84 -57.88 109.31 C-57.22 107.66 -56.56 106.01 -55.88 104.31 C-55.27 104.26 -54.67 104.21 -54.05 104.16 C-52.85 104.05 -52.85 104.05 -51.62 103.94 C-50.44 103.83 -50.44 103.83 -49.23 103.73 C-46.7 103.28 -45.02 102.73 -42.88 101.31 C-40.02 97.04 -40.09 92.25 -40.88 87.31 C-42.07 85.06 -43.36 83.17 -44.98 81.2 C-45.88 79.31 -45.88 79.31 -45.44 76.99 C-43.26 73.26 -40.39 70.68 -37.19 67.81 C-36.29 66.98 -36.29 66.98 -35.37 66.13 C-32.36 63.38 -29.38 60.95 -25.96 58.74 C-22.7 56.66 -22.7 56.66 -22.11 53.7 C-22.14 52.81 -22.16 51.92 -22.19 51 C-22.1 47.03 -21.75 44.51 -19.75 41.06 C-17.56 37.17 -17.72 34.69 -18.88 30.31 C-19.85 27.49 -19.85 27.49 -20.88 25.31 C-18.57 22.64 -16.84 21.87 -13.44 21.06 C-9.8 19.9 -8.94 19.4 -6.38 16.31 C-4.45 12.25 -4.26 8.01 -4.05 3.57 C-3.79 0.18 -3.44 0.37 0 0 Z " fill="#003A75" transform="translate(498.875,145.6875)"/>
<path d="M0 0 C1.65 0.33 3.3 0.66 5 1 C5.24 1.99 5.48 2.98 5.73 4 C7.74 12.48 7.74 12.48 11.31 20.38 C13.2 24.43 13.18 26.25 12.42 30.51 C10.55 41.51 10.8 52.7 10.76 63.82 C10.76 64.76 10.75 65.7 10.75 66.67 C10.73 71.63 10.71 76.6 10.7 81.56 C10.69 86.67 10.66 91.78 10.62 96.88 C10.59 100.83 10.59 104.78 10.58 108.73 C10.58 110.61 10.57 112.5 10.55 114.38 C10.52 117.01 10.52 119.65 10.53 122.28 C10.51 123.43 10.51 123.43 10.49 124.61 C10.54 129.57 11.61 132.93 14.11 137.23 C15.56 140.13 15.25 142.64 14.94 145.81 C14.82 147.11 14.69 148.41 14.57 149.75 C14.11 153.48 13.46 157.17 12.8 160.87 C11.45 168.46 10.77 175.59 11.19 183.31 C11.23 184.09 11.27 184.88 11.32 185.68 C11.64 190.1 12.55 193.79 14 198 C14.17 202.76 13.03 207.17 11.44 211.62 C10.04 215.55 9.59 218.8 10 223 C10.65 224.34 11.32 225.67 12 227 C12.96 232.59 12.93 237.16 12.06 242.81 C10.33 254 10.33 254 12 265 C12.06 268.5 12.02 271.99 11.96 275.49 C11.92 279.08 12.05 282.29 12.62 285.86 C13 289 13 289 11 292 C7.92 292.4 5.96 292.62 3 292 C0.31 289.82 -1.46 288.09 -3 285 C-3.07 282.44 -3.09 279.91 -3.06 277.36 C-3.06 276.6 -3.05 275.84 -3.05 275.06 C-3.03 271.8 -3.01 268.55 -2.98 265.3 C-2.96 262.92 -2.95 260.55 -2.94 258.17 C-2.93 257.44 -2.92 256.72 -2.91 255.96 C-2.89 251.85 -3.26 248.04 -4 244 C-4.36 237.16 -3.77 230.3 -3.27 223.49 C-3.22 222.73 -3.17 221.98 -3.12 221.21 C-3.05 220.21 -3.05 220.21 -2.98 219.19 C-2.94 216.9 -2.94 216.9 -3.49 214.29 C-4.02 210.88 -4.13 207.67 -4.13 204.22 C-4.13 203.24 -4.13 203.24 -4.13 202.25 C-4.14 200.12 -4.14 197.99 -4.13 195.86 C-4.13 194.36 -4.13 192.87 -4.14 191.37 C-4.14 188.24 -4.14 185.12 -4.13 181.99 C-4.12 178 -4.13 174.01 -4.13 170.03 C-4.14 166.94 -4.14 163.85 -4.13 160.77 C-4.13 159.3 -4.13 157.83 -4.14 156.36 C-4.14 149.53 -4.12 142.79 -3.23 136 C-2.82 132.39 -2.86 128.78 -2.87 125.15 C-2.87 124.31 -2.86 123.47 -2.86 122.61 C-2.86 119.87 -2.87 117.12 -2.88 114.38 C-2.88 113.43 -2.88 112.48 -2.88 111.51 C-2.9 95.75 -3.12 80 -3.44 64.25 C-3.46 63.24 -3.48 62.22 -3.5 61.18 C-3.55 58.29 -3.62 55.4 -3.68 52.52 C-3.7 51.67 -3.72 50.82 -3.73 49.95 C-3.86 44.9 -4.32 40.01 -5 35 C-5.08 33.27 -5.13 31.54 -5.12 29.81 C-5.13 29.01 -5.13 28.22 -5.13 27.39 C-5 25 -5 25 -4.52 22.67 C-3.62 18.03 -3.66 13.3 -3.48 8.59 C-2.99 4.93 -2.13 2.96 0 0 Z " fill="#003A76" transform="translate(843,242)"/>
<path d="M0 0 C1.33 2 2.67 4 4 6 C6.8 6.3 9.39 6.41 12.2 6.38 C13.49 6.39 13.49 6.39 14.81 6.4 C17.73 6.41 20.64 6.41 23.56 6.4 C25.67 6.4 27.77 6.41 29.87 6.42 C35.67 6.44 41.47 6.44 47.26 6.43 C53.51 6.43 59.75 6.45 66 6.46 C76.82 6.49 87.65 6.5 98.48 6.5 C109.83 6.51 121.19 6.52 132.55 6.54 C133.26 6.54 133.96 6.54 134.69 6.54 C138.27 6.55 141.85 6.55 145.44 6.56 C170.83 6.6 196.22 6.63 221.62 6.65 C246.29 6.67 270.97 6.7 295.64 6.74 C296.78 6.74 296.78 6.74 297.95 6.74 C305.58 6.75 313.21 6.76 320.85 6.77 C336.4 6.8 351.95 6.82 367.51 6.84 C368.58 6.84 368.58 6.84 369.67 6.84 C417.45 6.91 465.22 6.96 513 7 C513 8.98 513 10.96 513 13 C341.4 13.33 169.8 13.66 -7 14 C-7 10.7 -7 7.4 -7 4 C-4.69 4.33 -2.38 4.66 0 5 C0 3.35 0 1.7 0 0 Z " fill="#003A76" transform="translate(767,626)"/>
<path d="M0 0 C0.43 0.9 0.43 0.9 0.88 1.81 C2.05 4.19 2.05 4.19 4 7 C-165.29 7 -334.58 7 -509 7 C-509 5.68 -509 4.36 -509 3 C-499.05 0.38 -489.16 0.73 -478.94 0.77 C-476.89 0.77 -474.83 0.77 -472.77 0.76 C-467.13 0.76 -461.49 0.77 -455.85 0.78 C-449.76 0.79 -443.68 0.79 -437.59 0.79 C-427.05 0.8 -416.5 0.8 -405.96 0.82 C-394.91 0.83 -383.85 0.84 -372.79 0.85 C-371.76 0.85 -371.76 0.85 -370.71 0.85 C-367.22 0.85 -363.72 0.85 -360.23 0.85 C-335.49 0.86 -310.75 0.88 -286.01 0.9 C-284.52 0.91 -283.02 0.91 -281.53 0.91 C-280.79 0.91 -280.05 0.91 -279.28 0.91 C-275.54 0.91 -271.79 0.92 -268.04 0.92 C-266.92 0.92 -266.92 0.92 -265.79 0.92 C-248.51 0.94 -231.22 0.95 -213.94 0.97 C-213.2 0.97 -212.46 0.97 -211.7 0.97 C-194.8 0.98 -177.89 0.99 -160.99 1 C-160.28 1 -159.57 1 -158.84 1 C-152.46 1 -146.08 1.01 -139.69 1.01 C-123.76 1.02 -107.83 1.03 -91.89 1.05 C-80.8 1.06 -69.7 1.07 -58.61 1.07 C-52.59 1.08 -46.57 1.08 -40.56 1.09 C-35.06 1.1 -29.56 1.1 -24.07 1.11 C-22.07 1.11 -20.07 1.11 -18.07 1.11 C-15.38 1.12 -12.68 1.12 -9.98 1.12 C-9.19 1.12 -8.4 1.12 -7.59 1.13 C-3.67 1.2 -3.67 1.2 0 0 Z " fill="#003A75" transform="translate(509,632)"/>
<path d="M0 0 C0 138.93 0 277.86 0 421 C-1.65 420.34 -3.3 419.68 -5 419 C-5.05 366.33 -5.08 313.65 -5.1 260.98 C-5.1 254.77 -5.11 248.55 -5.11 242.34 C-5.11 241.1 -5.11 239.87 -5.11 238.59 C-5.12 218.54 -5.14 198.49 -5.15 178.44 C-5.17 157.88 -5.18 137.32 -5.19 116.76 C-5.19 104.06 -5.2 91.37 -5.22 78.67 C-5.23 69.97 -5.23 61.28 -5.23 52.58 C-5.23 47.56 -5.23 42.53 -5.24 37.51 C-5.25 32.92 -5.25 28.32 -5.24 23.73 C-5.24 22.06 -5.24 20.4 -5.25 18.73 C-5.26 16.47 -5.25 14.21 -5.25 11.96 C-5.25 10.7 -5.25 9.45 -5.25 8.15 C-5.01 5.15 -4.68 3.46 -3 1 C-1 0 -1 0 0 0 Z " fill="#002361" transform="translate(517,219)"/>
<path d="M0 0 C2.06 0.44 2.06 0.44 4 1 C6.29 24.3 6.21 47.51 6.08 70.9 C6.04 78.78 6.01 86.67 5.98 94.56 C5.97 97.26 5.96 99.96 5.94 102.66 C5.88 115.13 6.33 127.55 7 140 C7.7 140.04 8.4 140.07 9.12 140.11 C10.48 140.21 10.48 140.21 11.88 140.31 C12.78 140.37 13.68 140.43 14.62 140.49 C17 141 17 141 19 144 C18.55 150.45 18.55 150.45 16 153 C14.09 152.94 14.09 152.94 11.94 152.56 C10.64 152.38 9.34 152.19 8 152 C6.43 153.57 6.85 155.14 6.83 157.32 C6.81 158.25 6.8 159.19 6.79 160.15 C6.77 161.17 6.76 162.2 6.75 163.27 C6.72 165.5 6.69 167.73 6.66 169.96 C6.64 171.15 6.63 172.34 6.61 173.56 C6.34 193.79 5.91 214.02 5.19 234.24 C5.1 236.58 5.02 238.92 4.95 241.26 C4.84 244.52 4.72 247.78 4.6 251.05 C4.57 252.02 4.54 252.99 4.51 253.98 C4.47 254.87 4.43 255.75 4.39 256.67 C4.37 257.44 4.34 258.2 4.31 259 C4 261 4 261 2 264 C1.34 264 0.68 264 0 264 C-1.39 261.21 -1.31 258.67 -1.5 255.56 C-1.72 252.11 -1.9 249.29 -3 246 C-3.12 242.38 -3.12 242.38 -3 239 C-2.67 238.67 -2.34 238.34 -2 238 C-1.9 236.52 -1.88 235.04 -1.89 233.56 C-1.89 232.55 -1.89 231.54 -1.89 230.5 C-1.9 229.34 -1.9 228.19 -1.91 227 C-1.91 225.75 -1.92 224.5 -1.92 223.21 C-1.94 218.47 -1.97 213.74 -2 209 C-2.01 208.02 -2.01 207.05 -2.02 206.04 C-2.12 190.6 -2.24 175.16 -2.37 159.72 C-2.43 153.28 -2.48 146.84 -2.53 140.41 C-2.57 135.42 -2.61 130.42 -2.65 125.43 C-2.67 123.06 -2.69 120.68 -2.71 118.3 C-2.73 115.01 -2.76 111.71 -2.79 108.41 C-2.8 107.44 -2.81 106.47 -2.81 105.47 C-2.86 100.85 -3.24 96.57 -4 92 C-3.67 91.01 -3.34 90.02 -3 89 C-2.89 86.81 -2.83 84.61 -2.81 82.41 C-2.8 81.75 -2.79 81.08 -2.79 80.39 C-2.77 78.95 -2.75 77.5 -2.74 76.05 C-2.72 73.75 -2.69 71.44 -2.66 69.13 C-2.6 64.21 -2.55 59.29 -2.5 54.38 C-2.44 48.72 -2.38 43.06 -2.31 37.4 C-2.28 35.16 -2.26 32.92 -2.24 30.67 C-2.16 23.27 -1.95 15.89 -1.54 8.49 C-1.51 7.76 -1.47 7.02 -1.43 6.26 C-1.12 1.12 -1.12 1.12 0 0 Z " fill="#003A76" transform="translate(796,302)"/>
<path d="M0 0 C0.99 0 1.98 0 3 0 C4.29 2.57 4.1 4.39 4.06 7.27 C4.05 8.32 4.05 9.38 4.04 10.46 C4.01 12.68 3.99 14.91 3.96 17.13 C3.95 18.18 3.95 19.24 3.94 20.33 C3.93 21.3 3.91 22.27 3.9 23.26 C3.92 25.94 3.92 25.94 4.5 28.28 C5.06 31.32 5.13 34.13 5.13 37.22 C5.14 38.47 5.14 39.73 5.15 41.03 C5.15 42.43 5.15 43.82 5.15 45.21 C5.15 46.7 5.15 48.18 5.16 49.67 C5.17 53.74 5.17 57.82 5.17 61.9 C5.18 66.3 5.19 70.69 5.2 75.09 C5.22 85.71 5.23 96.33 5.24 106.95 C5.24 111.95 5.25 116.95 5.25 121.95 C5.27 138.57 5.28 155.19 5.29 171.81 C5.29 176.12 5.29 180.43 5.3 184.75 C5.3 185.82 5.3 186.89 5.3 187.99 C5.3 205.36 5.33 222.73 5.36 240.1 C5.4 257.94 5.41 275.77 5.42 293.6 C5.42 303.61 5.43 313.62 5.45 323.64 C5.48 332.16 5.48 340.69 5.47 349.21 C5.47 353.56 5.47 357.91 5.49 362.26 C5.51 366.24 5.51 370.22 5.49 374.21 C5.49 375.65 5.49 377.09 5.51 378.53 C5.57 386.45 5.32 392.23 1 399 C0.67 399 0.34 399 0 399 C-0 398.22 -0 397.43 -0.01 396.63 C-0.11 350.26 -0.22 303.89 -0.33 257.52 C-0.34 251.95 -0.36 246.39 -0.37 240.82 C-0.38 239.71 -0.38 238.61 -0.38 237.46 C-0.42 219.51 -0.47 201.56 -0.5 183.61 C-0.55 165.2 -0.59 146.79 -0.64 128.38 C-0.67 117.01 -0.69 105.64 -0.72 94.28 C-0.73 86.49 -0.75 78.7 -0.77 70.91 C-0.79 66.42 -0.8 61.92 -0.8 57.42 C-0.81 53.31 -0.82 49.19 -0.84 45.07 C-0.84 43.58 -0.84 42.09 -0.84 40.6 C-0.84 38.58 -0.85 36.56 -0.86 34.53 C-0.86 33.41 -0.87 32.28 -0.87 31.12 C-1 28 -1.45 25.07 -2 22 C-2.38 14.37 -2.34 7.3 0 0 Z " fill="#002361" transform="translate(762,226)"/>
<path d="M0 0 C0.66 0.33 1.32 0.66 2 1 C2.05 46.96 2.08 92.91 2.1 138.87 C2.1 144.29 2.11 149.71 2.11 155.13 C2.11 156.21 2.11 157.28 2.11 158.4 C2.12 175.89 2.14 193.38 2.15 210.88 C2.17 228.82 2.18 246.75 2.19 264.69 C2.19 275.77 2.2 286.84 2.22 297.92 C2.23 305.51 2.23 313.09 2.23 320.68 C2.23 325.06 2.23 329.45 2.24 333.83 C2.25 337.84 2.25 341.84 2.24 345.85 C2.24 347.3 2.24 348.76 2.25 350.21 C2.26 352.18 2.25 354.15 2.25 356.12 C2.25 357.21 2.25 358.31 2.25 359.44 C2 362 2 362 0 364 C-0.33 322.75 -0.66 281.5 -1 239 C-0.96 267.49 -0.96 267.49 -0.91 295.99 C-0.89 315.35 -0.91 334.66 -2 354 C-2.33 354 -2.66 354 -3 354 C-3 238.5 -3 123 -3 4 C-2.34 3.67 -1.68 3.34 -1 3 C-1 76.92 -1 150.84 -1 227 C-0.67 152.09 -0.34 77.18 0 0 Z " fill="#003A75" transform="translate(770,257)"/>
<path d="M0 0 C4.88 1.75 10.38 0.06 15.38 -0.81 C16.39 -0.92 17.4 -1.02 18.44 -1.12 C20.44 0.88 20.44 0.88 20.44 3.69 C19.37 7.08 18.11 8.83 15.25 10.96 C11.86 12.66 9.18 12.3 5.44 11.88 C4.09 11.24 2.75 10.58 1.44 9.88 C-1.65 9.54 -1.65 9.54 -4.56 9.88 C-5.22 10.53 -5.88 11.19 -6.56 11.88 C-9.12 11.63 -10.25 11.22 -12 9.31 C-13.53 7.63 -13.53 7.63 -16.12 7.5 C-16.93 7.62 -17.73 7.75 -18.56 7.88 C-19.55 9.36 -19.55 9.36 -20.56 10.88 C-23 11.75 -23 11.75 -25.56 11.88 C-27.38 10.81 -27.38 10.81 -28.56 8.88 C-29.06 5.88 -29.06 5.88 -28.56 2.88 C-22.03 -3.43 -7.94 -3.49 0 0 Z " fill="#003A76" transform="translate(742.5625,155.125)"/>
<path d="M0 0 C78.54 0 157.08 0 238 0 C238.33 0.66 238.66 1.32 239 2 C159.8 2.33 80.6 2.66 -1 3 C-0.67 2.01 -0.34 1.02 0 0 Z " fill="#D3EAF2" transform="translate(519,219)"/>
<path d="M0 0 C0.74 0.01 1.48 0.01 2.25 0.02 C3.03 0.02 3.81 0.02 4.61 0.02 C7.2 0.02 9.78 0.04 12.37 0.05 C14.16 0.06 15.95 0.06 17.74 0.06 C22.46 0.07 27.18 0.09 31.9 0.11 C36.71 0.13 41.52 0.14 46.33 0.15 C55.78 0.17 65.23 0.21 74.67 0.25 C75.17 2.23 75.17 2.23 75.67 4.25 C72.03 6.68 69.38 6.52 65.17 6.48 C64.41 6.48 63.65 6.48 62.87 6.48 C60.35 6.48 57.83 6.46 55.32 6.44 C53.57 6.44 51.83 6.44 50.09 6.44 C45.49 6.43 40.9 6.41 36.31 6.39 C31.63 6.37 26.94 6.36 22.25 6.35 C13.06 6.33 3.87 6.29 -5.33 6.25 C-5.99 4.93 -6.65 3.61 -7.33 2.25 C-4.84 -0.24 -3.39 0.01 0 0 Z " fill="#003A76" transform="translate(27.32574462890625,590.7511596679688)"/>
<path d="M0 0 C2.71 -0.42 4.28 -0.51 6.55 1.1 C8.62 3.82 9.01 6.42 9.69 9.75 C10.06 11.54 10.06 11.54 10.45 13.36 C11.31 19.02 11.03 24.17 10.21 29.81 C9.89 33.18 10.08 36.52 10.26 39.9 C10.17 40.59 10.09 41.29 10 42 C7 44 7 44 4 43.75 C1 43 1 43 -2 41 C-2.38 38.62 -2.38 38.62 -2 36 C-1.26 35.07 -1.26 35.07 -0.5 34.12 C1.68 31.04 1.18 28.73 1 25 C0.56 22.68 0.06 20.36 -0.5 18.06 C-1.67 12.85 -2.5 8.33 -2 3 C-1.34 2.01 -0.68 1.02 0 0 Z " fill="#003A76" transform="translate(422,507)"/>
<path d="M0 0 C2.06 0.44 2.06 0.44 4 1 C7.51 17.48 7.51 17.48 5 25 C4.84 26.96 4.84 26.96 4.88 29 C4.87 29.68 4.87 30.36 4.87 31.06 C4.93 33.22 4.93 33.22 6 36 C6.53 41.91 6.58 47.01 3 52 C0.88 52.94 0.88 52.94 -1 53 C-3.33 50.67 -2.99 46.1 -3.01 42.96 C-2.98 41.56 -2.93 40.15 -2.89 38.74 C-2.63 31.23 -3.12 26.6 -7 20 C-6.01 17.31 -4.67 15.59 -2.88 13.31 C-0.69 9.45 -0.69 7.18 -0.96 2.86 C-0.97 2.24 -0.99 1.63 -1 1 C-0.67 0.67 -0.34 0.34 0 0 Z " fill="#003A76" transform="translate(1208,55)"/>
<path d="M0 0 C1.85 -0.01 1.85 -0.01 3.74 -0.02 C5.09 -0.02 6.45 -0.01 7.8 -0.01 C9.18 -0.01 10.57 -0.01 11.95 -0.01 C14.85 -0.02 17.75 -0.01 20.64 -0 C24.36 0.01 28.08 0 31.8 -0.01 C34.66 -0.02 37.51 -0.01 40.37 -0.01 C41.74 -0.01 43.11 -0.01 44.48 -0.01 C46.4 -0.02 48.31 -0.01 50.23 0 C51.32 0 52.41 0 53.53 0 C56.11 0.26 56.11 0.26 58.11 2.26 C57.74 4.38 57.74 4.38 57.11 6.26 C52.7 7.35 48.38 7.4 43.86 7.39 C43.07 7.39 42.29 7.39 41.48 7.39 C39.82 7.4 38.17 7.39 36.52 7.39 C33.99 7.38 31.46 7.39 28.93 7.4 C27.32 7.39 25.71 7.39 24.11 7.39 C22.97 7.39 22.97 7.39 21.81 7.4 C18.65 7.38 16.14 7.27 13.11 6.26 C11.63 6.18 10.15 6.15 8.66 6.16 C7.82 6.16 6.97 6.17 6.1 6.17 C4.77 6.18 4.77 6.18 3.43 6.2 C2.09 6.2 2.09 6.2 0.72 6.21 C-1.48 6.22 -3.68 6.24 -5.89 6.26 C-6.55 4.94 -7.21 3.62 -7.89 2.26 C-5.18 -0.44 -3.78 0.01 0 0 Z " fill="#003A76" transform="translate(136.88671875,577.7412109375)"/>
<path d="M0 0 C1.86 0.09 3.71 0.25 5.56 0.44 C7.08 0.59 7.08 0.59 8.63 0.75 C9.8 0.87 9.8 0.87 11 1 C11.19 1.93 11.37 2.86 11.56 3.81 C12.74 7.32 12.74 7.32 16.44 8.69 C18.2 9.34 18.2 9.34 20 10 C21.94 11.69 21.94 11.69 23 13 C21.6 16.39 20.24 18.21 17 20 C10.3 21.5 3.24 21.12 -3 18 C-3.41 15.68 -3.74 13.34 -4 11 C-3.34 10.67 -2.68 10.34 -2 10 C-1.57 7.91 -1.57 7.91 -1.44 5.5 C-1.1 1.1 -1.1 1.1 0 0 Z " fill="#003A76" transform="translate(543,192)"/>
<path d="M0 0 C0.99 0.33 1.98 0.66 3 1 C4.23 18.62 4.19 36.25 4.19 53.91 C4.19 58.19 4.2 62.48 4.22 66.76 C4.23 70.09 4.23 73.41 4.23 76.74 C4.23 78.32 4.23 79.9 4.24 81.48 C4.25 83.68 4.25 85.87 4.24 88.07 C4.24 89.32 4.25 90.56 4.25 91.84 C4.01 94.83 3.57 96.5 2 99 C1.34 99 0.68 99 0 99 C0 66.33 0 33.66 0 0 Z " fill="#003A76" transform="translate(0,230)"/>
<path d="M0 0 C0.78 0 1.56 0 2.36 0.01 C3.68 0.01 3.68 0.01 5.03 0.01 C5.99 0.01 6.95 0.02 7.93 0.02 C9.39 0.02 9.39 0.02 10.89 0.03 C14.02 0.03 17.14 0.05 20.27 0.06 C22.39 0.06 24.5 0.07 26.62 0.07 C31.81 0.08 37.01 0.1 42.21 0.12 C43.21 2.12 43.21 2.12 42.46 4.62 C41.21 7.12 41.21 7.12 38.21 9.12 C35.97 9.28 35.97 9.28 33.46 9.18 C30.19 9.09 27.7 9.22 24.46 9.87 C20.15 10.2 18.46 8.83 15.21 6.12 C14.88 5.46 14.55 4.8 14.21 4.12 C12.89 4.12 11.57 4.12 10.21 4.12 C7.94 6.54 7.94 6.54 6.21 9.12 C3.4 9.06 3.4 9.06 0.21 8.12 C-1.28 5.85 -1.93 3.74 -2.79 1.12 C-1.79 0.12 -1.79 0.12 0 0 Z " fill="#003A76" transform="translate(118.79066467285156,2.8797454833984375)"/>
<path d="M0 0 C1.98 0.99 1.98 0.99 4 2 C4.08 22.29 3.85 42.56 3.54 62.84 C3.47 66.82 3.42 70.81 3.36 74.79 C3.24 82.53 3.12 90.26 3 98 C1.51 98.5 1.51 98.5 0 99 C0 66.33 0 33.66 0 0 Z " fill="#003A76" transform="translate(0,375)"/>
<path d="M0 0 C7.59 0 15.18 0 23 0 C21.49 6.02 19.87 11.26 15.25 15.56 C10.99 17.45 8.63 17.61 4 17 C-0.68 12.55 0.3 6.02 0 0 Z " fill="#003A76" transform="translate(15,0)"/>
<path d="M0 0 C1.41 0.01 1.41 0.01 2.84 0.01 C3.9 0.01 4.96 0.01 6.05 0.01 C7.2 0.02 8.35 0.03 9.54 0.05 C10.71 0.05 11.88 0.05 13.09 0.05 C16.85 0.06 20.61 0.09 24.37 0.12 C26.92 0.13 29.46 0.13 32.01 0.14 C38.25 0.16 44.5 0.2 50.75 0.24 C51.31 2.18 51.31 2.18 51.75 4.24 C47.63 8.36 30.98 6.33 25.09 6.34 C21.81 6.34 18.53 6.32 15.25 6.3 C13.54 6.3 11.83 6.29 10.12 6.29 C5.99 6.28 1.87 6.26 -2.25 6.24 C-2.91 4.92 -3.57 3.6 -4.25 2.24 C-2.25 0.24 -2.25 0.24 0 0 Z " fill="#003A76" transform="translate(133.25259399414063,590.7594909667969)"/>
<path d="M0 0 C8.01 0.12 8.01 0.12 11.67 0.79 C14.42 1.2 16.25 1.09 18.97 0.73 C25.26 0.05 31.43 0.35 37.73 0.67 C38.88 0.72 40.03 0.77 41.21 0.83 C44.01 0.95 46.81 1.09 49.61 1.23 C50.27 2.55 50.93 3.87 51.61 5.23 C47.94 7.68 46.09 7.47 41.73 7.42 C39.91 7.41 39.91 7.41 38.05 7.4 C35.1 7.25 32.5 6.82 29.61 6.23 C27.8 6.19 25.98 6.19 24.17 6.23 C21.07 6.27 18.48 6.2 15.42 5.61 C12.61 5.23 11.33 5.47 8.67 6.23 C4.7 7.34 1.64 7.36 -2.39 6.23 C-3.83 4.17 -3.83 4.17 -4.39 2.23 C-2.39 0.23 -2.39 0.23 0 0 Z " fill="#003A76" transform="translate(337.390625,577.76953125)"/>
<path d="M0 0 C15.18 0 30.36 0 46 0 C46.49 1.98 46.49 1.98 47 4 C45.39 5.61 43.59 5.22 41.36 5.32 C39.89 5.38 39.89 5.38 38.39 5.44 C36.81 5.5 36.81 5.5 35.19 5.56 C34.11 5.6 33.04 5.64 31.93 5.69 C24.85 5.94 17.77 6.13 10.69 6.19 C9.85 6.2 9.02 6.21 8.16 6.23 C4.25 6.23 2.33 6.22 -1 4 C-0.67 2.68 -0.34 1.36 0 0 Z " fill="#003A76" transform="translate(1070,591)"/>
<path d="M0 0 C3.96 0 7.92 0 12 0 C12 0.66 12 1.32 12 2 C12.6 2.06 13.2 2.12 13.81 2.19 C16.87 3.32 17.55 5.17 19 8 C16.44 11.13 13.89 12.05 10 13 C4.45 13.35 0.26 12.75 -5 11 C-5.33 8.69 -5.66 6.38 -6 4 C-3 2 -3 2 0 2 C0 1.34 0 0.68 0 0 Z " fill="#003A76" transform="translate(722,200)"/>
<path d="M0 0 C3 1 3 1 4 3 C4.06 5.44 4.07 7.85 4.02 10.3 C4.01 11.42 4.01 11.42 3.99 12.57 C3.96 15.06 3.92 17.55 3.88 20.04 C3.85 21.76 3.83 23.49 3.81 25.21 C3.74 29.75 3.68 34.29 3.61 38.83 C3.53 43.46 3.47 48.09 3.4 52.73 C3.28 61.82 3.14 70.91 3 80 C1.51 80.5 1.51 80.5 0 81 C0 54.27 0 27.54 0 0 Z " fill="#003A76" transform="translate(0,137)"/>
<path d="M0 0 C2.28 0.18 4.51 0.52 6.77 0.84 C9.17 1.15 9.17 1.15 12 0 C14.36 -0.08 16.72 -0.11 19.07 -0.1 C20.1 -0.1 20.1 -0.1 21.15 -0.09 C23.33 -0.09 25.51 -0.08 27.69 -0.06 C29.17 -0.06 30.65 -0.05 32.13 -0.05 C35.75 -0.04 39.38 -0.02 43 0 C43.66 1.32 44.32 2.64 45 4 C41.37 6.42 39.67 6.25 35.36 6.23 C34.04 6.23 32.72 6.23 31.37 6.22 C30.68 6.22 29.99 6.21 29.29 6.21 C27.21 6.19 25.13 6.19 23.04 6.19 C17.25 6.16 11.72 6.02 6 5 C4 4.96 2 4.95 0 5 C-0.56 3.06 -0.56 3.06 -1 1 C-0.67 0.67 -0.34 0.34 0 0 Z " fill="#003A76" transform="translate(357,591)"/>
<path d="M0 0 C3.17 1.06 3.73 1.73 6 4 C7.98 5.36 9.98 6.7 12 8 C11.67 9.65 11.34 11.3 11 13 C4.58 15.14 -3.43 14.51 -10 13 C-12 11.75 -12 11.75 -13 10 C-12.69 7.31 -12.69 7.31 -12 5 C-11.39 4.97 -10.77 4.95 -10.14 4.92 C-5.01 4.72 -5.01 4.72 -0.94 1.94 C-0.63 1.3 -0.32 0.66 0 0 Z " fill="#003A76" transform="translate(822,571)"/>
<path d="M0 0 C11.88 0 23.76 0 36 0 C36.66 1.32 37.32 2.64 38 4 C33.85 8.15 19.71 6.18 14.06 6.19 C13.05 6.2 12.03 6.21 10.99 6.22 C10.02 6.23 9.04 6.23 8.04 6.23 C7.16 6.23 6.29 6.24 5.39 6.24 C2.83 5.98 1.2 5.29 -1 4 C-0.67 2.68 -0.34 1.36 0 0 Z " fill="#003A76" transform="translate(1018,591)"/>
<path d="M0 0 C11.88 0 23.76 0 36 0 C36.66 1.32 37.32 2.64 38 4 C33.85 8.15 19.71 6.18 14.06 6.19 C13.05 6.2 12.03 6.21 10.99 6.22 C10.02 6.23 9.04 6.23 8.04 6.23 C7.16 6.23 6.29 6.24 5.39 6.24 C2.83 5.98 1.2 5.29 -1 4 C-0.67 2.68 -0.34 1.36 0 0 Z " fill="#003A76" transform="translate(250,591)"/>
<path d="M0 0 C1.02 -0 1.02 -0 2.06 -0.01 C3.5 -0.01 4.94 -0 6.38 0 C8.59 0.02 10.79 0 13 -0.01 C14.39 -0.01 15.79 -0 17.19 0 C18.46 0 19.74 0 21.05 0.01 C24.09 0.27 24.09 0.27 26.09 2.27 C25.91 4.33 25.91 4.33 25.09 6.27 C21.62 7.42 19.11 7.29 15.46 7.14 C14.16 7.1 12.86 7.05 11.52 7 C10.15 6.94 8.78 6.88 7.41 6.83 C6.02 6.77 4.64 6.72 3.26 6.67 C-0.13 6.54 -3.52 6.41 -6.91 6.27 C-7.57 4.95 -8.23 3.63 -8.91 2.27 C-6.04 -0.6 -4.01 0.01 0 0 Z " fill="#003A76" transform="translate(1087.90625,577.734375)"/>
<path d="M0 0 C0.8 0 1.59 0 2.41 0 C4.96 0.01 7.51 0.02 10.05 0.04 C11.78 0.04 13.51 0.04 15.23 0.05 C19.46 0.06 23.7 0.08 27.93 0.1 C28.49 2.04 28.49 2.04 28.93 4.1 C25.06 7.96 11.07 6.23 5.55 6.29 C4.43 6.3 4.43 6.3 3.29 6.32 C-1.54 6.33 -5.49 5.63 -10.07 4.1 C-10.07 3.11 -10.07 2.12 -10.07 1.1 C-6.9 -0.49 -3.48 -0.02 0 0 Z " fill="#003A76" transform="translate(975.0703125,590.90234375)"/>
<path d="M0 0 C11.88 0 23.76 0 36 0 C36.5 1.98 36.5 1.98 37 4 C33.13 7.87 19.08 6.14 13.56 6.19 C12.81 6.2 12.05 6.21 11.27 6.23 C6.78 6.23 3.23 5.69 -1 4 C-0.67 2.68 -0.34 1.36 0 0 Z " fill="#003A76" transform="translate(199,591)"/>
<path d="M0 0 C0.99 0.33 1.98 0.66 3 1 C3.77 4.43 4.13 7.61 4.13 11.12 C4.13 12.08 4.14 13.03 4.14 14.02 C4.13 15 4.13 15.99 4.12 17 C4.13 17.98 4.13 18.97 4.14 19.98 C4.14 20.94 4.13 21.89 4.13 22.88 C4.13 23.74 4.13 24.6 4.13 25.49 C4 28 4 28 3.43 30.63 C2.78 33.14 2.78 33.14 4 36 C4.31 38.49 4.55 40.94 4.75 43.44 C4.82 44.11 4.89 44.77 4.96 45.46 C5.2 48.65 5.2 50.64 3.64 53.47 C2 55 2 55 0 55 C0 36.85 0 18.7 0 0 Z " fill="#003A76" transform="translate(0,553)"/>
<path d="M0 0 C3.19 0.31 3.19 0.31 5.5 2.12 C8.17 5.58 8.39 8.57 8.5 12.81 C8.54 13.77 8.57 14.73 8.61 15.72 C8.19 18.31 8.19 18.31 6.33 20.17 C4.19 21.31 4.19 21.31 1.56 21.12 C-0.81 20.31 -0.81 20.31 -2.81 18.31 C-2.97 15.92 -2.97 15.92 -2.88 13.06 C-2.79 8.99 -3.07 5.33 -3.81 1.31 C-2.81 0.31 -2.81 0.31 0 0 Z " fill="#003A76" transform="translate(696.8125,145.6875)"/>
<path d="M0 0 C6.83 -0.15 10.03 3.23 14.86 7.77 C17.22 10.23 18.85 12.01 19.38 15.44 C19 18 19 18 17.31 20.31 C14.6 22.29 13.29 22.44 10 22 C8.38 20.38 8.8 18.42 8.69 16.19 C8.37 12.81 8.22 11.32 6.25 8.5 C3.9 6.93 1.68 5.89 -1 5 C-0.67 3.35 -0.34 1.7 0 0 Z " fill="#003A76" transform="translate(797,140)"/>
<path d="M0 0 C0.99 0.33 1.98 0.66 3 1 C2.99 1.71 2.99 2.41 2.98 3.14 C2.93 12.21 3.3 21.23 3.73 30.29 C3.99 36.37 3.85 41.98 3 48 C3.33 48.66 3.66 49.32 4 50 C4.35 56.47 4.35 56.47 2 60 C1.34 60 0.68 60 0 60 C0 40.2 0 20.4 0 0 Z " fill="#003A76" transform="translate(0,486)"/>
<path d="M0 0 C1.25 0.01 2.5 0.01 3.79 0.02 C4.79 0.02 4.79 0.02 5.81 0.02 C7.94 0.03 10.07 0.04 12.2 0.05 C13.64 0.06 15.08 0.06 16.52 0.06 C20.06 0.08 23.59 0.09 27.13 0.11 C27.79 1.43 28.45 2.75 29.13 4.11 C27.13 6.11 27.13 6.11 25.12 6.36 C23.9 6.35 23.9 6.35 22.66 6.34 C21.76 6.34 20.86 6.34 19.93 6.34 C18.99 6.33 18.04 6.31 17.07 6.3 C16.15 6.3 15.24 6.3 14.29 6.3 C8.5 6.26 2.88 5.85 -2.87 5.11 C-3.43 3.18 -3.43 3.18 -3.87 1.11 C-2.87 0.11 -2.87 0.11 0 0 Z " fill="#003A76" transform="translate(1162.867431640625,590.886474609375)"/>
<path d="M0 0 C0.87 0.14 1.74 0.29 2.64 0.43 C4.76 0.78 6.88 1.14 9 1.5 C9 2.82 9 4.14 9 5.5 C5.05 5.55 1.1 5.59 -2.85 5.61 C-4.86 5.62 -6.87 5.65 -8.87 5.68 C-10.13 5.68 -11.38 5.69 -12.68 5.7 C-13.84 5.71 -15 5.72 -16.2 5.73 C-19 5.5 -19 5.5 -21 3.5 C-20.75 1.44 -20.75 1.44 -20 -0.5 C-14.29 -3.36 -6.04 -1.03 0 0 Z " fill="#003A76" transform="translate(76,578.5)"/>
<path d="M0 0 C1 1 1 1 1.38 3.31 C1 6 1 6 -1.12 8.38 C-4 10 -4 10 -6.75 9.94 C-7.82 9.63 -8.89 9.32 -10 9 C-10.77 8.8 -11.55 8.6 -12.35 8.39 C-17.1 7.03 -17.1 7.03 -19 6 C-19.82 3.96 -19.82 3.96 -20 2 C-18.38 0.38 -16.34 0.41 -14.12 0 C-4.56 -1.78 -4.56 -1.78 0 0 Z " fill="#003A76" transform="translate(849,187)"/>
<path d="M0 0 C1.04 0.01 2.07 0.02 3.14 0.03 C4.26 0.04 5.39 0.04 6.54 0.05 C7.72 0.07 8.89 0.08 10.1 0.1 C11.88 0.12 11.88 0.12 13.69 0.13 C16.62 0.15 19.55 0.19 22.48 0.23 C23.14 1.55 23.8 2.87 24.48 4.23 C22.48 6.23 22.48 6.23 19.96 6.45 C18.92 6.44 17.88 6.43 16.81 6.42 C15.69 6.42 14.57 6.41 13.42 6.4 C12.24 6.39 11.06 6.37 9.85 6.35 C8.08 6.34 8.08 6.34 6.27 6.32 C3.34 6.3 0.41 6.27 -2.52 6.23 C-3.18 4.91 -3.84 3.59 -4.52 2.23 C-2.52 0.23 -2.52 0.23 0 0 Z " fill="#003A76" transform="translate(838.52197265625,590.77294921875)"/>
<path d="M0 0 C1.39 2.05 1.39 2.05 2 4 C0 6 0 6 -2.71 6.23 C-3.83 6.22 -4.95 6.21 -6.1 6.2 C-7.92 6.19 -7.92 6.19 -9.77 6.18 C-11.04 6.16 -12.32 6.14 -13.62 6.12 C-14.9 6.12 -16.18 6.11 -17.5 6.1 C-20.67 6.07 -23.83 6.04 -27 6 C-27.56 4.06 -27.56 4.06 -28 2 C-22.81 -3.19 -6.5 -1.58 0 0 Z " fill="#003A76" transform="translate(1005,578)"/>
<path d="M0 0 C1.39 2.05 1.39 2.05 2 4 C0 6 0 6 -2.71 6.23 C-3.83 6.22 -4.95 6.21 -6.1 6.2 C-7.92 6.19 -7.92 6.19 -9.77 6.18 C-11.04 6.16 -12.32 6.14 -13.62 6.12 C-14.9 6.12 -16.18 6.11 -17.5 6.1 C-20.67 6.07 -23.83 6.04 -27 6 C-27.56 4.06 -27.56 4.06 -28 2 C-22.81 -3.19 -6.5 -1.58 0 0 Z " fill="#003A76" transform="translate(237,578)"/>
<path d="M0 0 C1.46 0.01 1.46 0.01 2.94 0.02 C3.91 0.01 4.88 0.01 5.88 0 C8.5 0.27 8.5 0.27 11.5 2.27 C12.07 4.64 12.07 4.64 11.5 7.27 C8.31 10.22 5.61 11.54 1.32 11.77 C-2.5 11.27 -2.5 11.27 -4.56 9.58 C-5.74 6.66 -5.51 5.22 -4.5 2.27 C-2.5 0.27 -2.5 0.27 0 0 Z " fill="#003A76" transform="translate(1209.49609375,520.734375)"/>
<path d="M0 0 C0.99 0.33 1.98 0.66 3 1 C3 33.01 3 65.02 3 98 C2.67 98 2.34 98 2 98 C2 90.74 2 83.48 2 76 C1.34 76 0.68 76 0 76 C0 72.37 0 68.74 0 65 C0.33 65 0.66 65 1 65 C1.33 49.49 1.66 33.98 2 18 C1.34 18 0.68 18 0 18 C0 12.06 0 6.12 0 0 Z " fill="#003A75" transform="translate(508,440)"/>
<path d="M0 0 C1.32 0.66 2.64 1.32 4 2 C3.31 6.04 2.12 9.72 0.69 13.56 C0.28 14.68 -0.13 15.79 -0.55 16.94 C-2.02 20.05 -3.31 21.88 -6 24 C-8.75 23.75 -8.75 23.75 -11 23 C-11.31 20.88 -11.31 20.88 -11 18 C-9.86 16.63 -8.72 15.27 -7.51 13.96 C-4.28 9.77 -2.24 4.76 0 0 Z " fill="#003A76" transform="translate(32,137)"/>
<path d="M0 0 C2.56 0.5 2.56 0.5 4.44 2.44 C5.99 6.67 5.79 10.18 4.56 14.5 C2.5 17.06 2.5 17.06 0.56 18.5 C-3.31 16.62 -3.31 16.62 -4.44 15.5 C-4.56 13.54 -4.61 11.58 -4.62 9.62 C-4.64 8.56 -4.65 7.49 -4.67 6.38 C-4.37 2.71 -3.81 0.78 0 0 Z " fill="#003A76" transform="translate(21.4375,537.5)"/>
<path d="M0 0 C6.93 0 13.86 0 21 0 C21.66 1.32 22.32 2.64 23 4 C20.6 6.4 20.03 6.26 16.75 6.27 C15.5 6.27 15.5 6.27 14.22 6.27 C13.34 6.27 12.46 6.26 11.56 6.25 C10.69 6.26 9.82 6.27 8.92 6.27 C8.08 6.27 7.24 6.27 6.38 6.27 C5.61 6.26 4.84 6.26 4.05 6.26 C2 6 2 6 -1 4 C-0.67 2.68 -0.34 1.36 0 0 Z " fill="#003A76" transform="translate(302,591)"/>
<path d="M0 0 C2.75 1.29 3.57 2.22 5 4.94 C6.13 9.9 6.74 14.42 4 18.94 C3.01 19.6 2.02 20.26 1 20.94 C-1 14.94 -3 8.94 -5 2.94 C-2.25 -0.07 -2.25 -0.07 0 0 Z " fill="#003A76" transform="translate(780,201.0625)"/>
<path d="M0 0 C3.44 0.81 3.44 0.81 7 2 C7.33 2.99 7.66 3.98 8 5 C8.66 5 9.32 5 10 5 C9.69 7.88 9.69 7.88 9 11 C5.37 13.42 4 13.19 -0.12 12.54 C-2 12 -2 12 -4 10.19 C-5 8 -5 8 -5 4 C-4.04 3.85 -4.04 3.85 -3.06 3.69 C-2.38 3.46 -1.7 3.23 -1 3 C-0.67 2.01 -0.34 1.02 0 0 Z " fill="#003A76" transform="translate(762,201)"/>
<path d="M0 0 C5.94 0 11.88 0 18 0 C18.66 1.32 19.32 2.64 20 4 C16.82 7.18 13.49 7.17 9.12 7.25 C4.72 7.22 1.78 6.39 -2 4 C-1.34 2.68 -0.68 1.36 0 0 Z " fill="#003A76" transform="translate(940,578)"/>
<path d="M0 0 C0.91 0.01 1.82 0.02 2.76 0.03 C3.75 0.04 4.73 0.04 5.75 0.05 C7.3 0.08 7.3 0.08 8.88 0.1 C9.92 0.11 10.96 0.12 12.03 0.13 C14.61 0.15 17.18 0.19 19.75 0.23 C20.38 2.1 20.38 2.1 20.75 4.23 C18.75 6.23 18.75 6.23 16.6 6.45 C15.73 6.44 14.86 6.43 13.96 6.42 C13.02 6.42 12.08 6.41 11.11 6.4 C10.13 6.39 9.14 6.37 8.13 6.35 C7.14 6.34 6.14 6.33 5.12 6.32 C2.66 6.3 0.21 6.27 -2.25 6.23 C-2.91 4.91 -3.57 3.59 -4.25 2.23 C-2.25 0.23 -2.25 0.23 0 0 Z " fill="#003A76" transform="translate(1202.24658203125,590.77294921875)"/>
<path d="M0 0 C3.56 -0.25 3.56 -0.25 7 0 C8.57 1.57 8.21 3.14 8.25 5.31 C8.21 8.26 8.07 9.86 6.81 12.56 C5 14 5 14 2.44 14.38 C0 14 0 14 -2 12 C-2.27 9.94 -2.27 9.94 -2.25 7.56 C-2.26 6.78 -2.26 6 -2.27 5.19 C-2 3 -2 3 0 0 Z " fill="#003A70" transform="translate(52,141)"/>
<path d="M0 0 C0.87 0.01 1.75 0.01 2.65 0.02 C3.59 0.02 4.54 0.02 5.51 0.03 C6.5 0.03 7.5 0.04 8.52 0.05 C9.52 0.06 10.52 0.06 11.54 0.06 C14.01 0.08 16.49 0.09 18.96 0.11 C18.96 3.11 18.96 3.11 17.46 5.3 C14 7.81 11.02 7.61 6.96 7.11 C0.65 5.87 0.65 5.87 -1.98 2.99 C-2.33 2.37 -2.68 1.75 -3.04 1.11 C-2.04 0.11 -2.04 0.11 0 0 Z " fill="#003A76" transform="translate(1169.041259765625,2.886474609375)"/>
<path d="M0 0 C3 1 3 1 4 3 C4.07 5.73 4 8.45 3.94 11.18 C4 13.92 4.42 16.32 5 19 C5.5 24.11 5.38 27.84 2 32 C1.34 32 0.68 32 0 32 C0 21.44 0 10.88 0 0 Z " fill="#003A76" transform="translate(0,337)"/>
<path d="M0 0 C3 1 3 1 4 3 C4.07 5.73 4 8.45 3.94 11.18 C4 13.92 4.42 16.32 5 19 C5.5 24.11 5.38 27.84 2 32 C1.34 32 0.68 32 0 32 C0 21.44 0 10.88 0 0 Z " fill="#003A76" transform="translate(0,81)"/>
<path d="M0 0 C2 2 2 2 2.31 4.88 C1.97 8.26 1.27 9.54 -1 12 C-5.59 10.51 -8.44 8.15 -12 5 C-11.88 3.12 -11.88 3.12 -11 1 C-7.03 -0.89 -4.19 -1.4 0 0 Z " fill="#003A76" transform="translate(82,556)"/>
<path d="M0 0 C3.89 0.69 5.31 2.59 7.71 5.61 C8.81 7.5 8.81 7.5 8.75 10.38 C7.81 12.5 7.81 12.5 6.81 13.5 C4 13.88 4 13.88 0.81 13.5 C-2.47 10.65 -3.14 9.11 -3.5 4.75 C-3.11 0.71 -3.11 0.71 0 0 Z " fill="#003A76" transform="translate(552.1875,154.5)"/>
<path d="M0 0 C0.66 1.32 1.32 2.64 2 4 C0.6 5.54 -0.82 7.05 -2.25 8.56 C-3.43 9.83 -3.43 9.83 -4.64 11.13 C-7 13 -7 13 -9.3 12.78 C-10.14 12.39 -10.14 12.39 -11 12 C-12.01 8.77 -12.2 7.44 -10.75 4.31 C-7.53 0.05 -5.1 -0.23 0 0 Z " fill="#003A76" transform="translate(863,556)"/>
<path d="M0 0 C3.04 0.16 4.57 0.62 6.88 2.62 C8.5 6.05 7.87 8.39 7 12 C6.34 12.66 5.68 13.32 5 14 C2.5 13.88 2.5 13.88 0 13 C-2.65 9.72 -2.3 6.06 -2 2 C-1.34 1.34 -0.68 0.68 0 0 Z " fill="#003A76" transform="translate(844,220)"/>
<path d="M0 0 C1.68 0.29 3.34 0.62 5 1 C5.84 3.93 6.16 6.58 6.19 9.62 C6.2 10.4 6.22 11.18 6.23 11.98 C6 14 6 14 4 16 C2 15.94 2 15.94 0 15 C-2.85 10.65 -2 5.87 -1 1 C-0.67 0.67 -0.34 0.34 0 0 Z " fill="#003A76" transform="translate(44,216)"/>
<path d="M0 0 C0.75 0.01 1.5 0.01 2.27 0.02 C3.08 0.02 3.89 0.02 4.72 0.03 C5.57 0.03 6.42 0.04 7.3 0.05 C8.15 0.06 9 0.06 9.88 0.06 C12 0.08 14.12 0.09 16.23 0.11 C16.86 1.99 16.86 1.99 17.23 4.11 C16.57 4.77 15.91 5.43 15.23 6.11 C12.31 6.1 9.51 5.97 6.61 5.74 C5.81 5.68 5.01 5.63 4.18 5.57 C2.2 5.43 0.22 5.27 -1.77 5.11 C-2.33 3.18 -2.33 3.18 -2.77 1.11 C-1.77 0.11 -1.77 0.11 0 0 Z " fill="#003A76" transform="translate(884.765869140625,578.886474609375)"/>
<path d="M0 0 C1.32 0.33 2.64 0.66 4 1 C4 6.61 4 12.22 4 18 C2.02 18.99 2.02 18.99 0 20 C-1.99 14.16 -3.61 7.6 -0.98 1.73 C-0.66 1.16 -0.33 0.59 0 0 Z " fill="#003A76" transform="translate(45,344)"/>
<path d="M0 0 C0 7.26 0 14.52 0 22 C-4 21 -4 21 -5 20 C-5.15 17.38 -5.23 14.81 -5.25 12.19 C-5.27 11.46 -5.29 10.74 -5.31 9.99 C-5.34 6.7 -5.22 4.39 -3.61 1.49 C-2 0 -2 0 0 0 Z " fill="#003A76" transform="translate(1277,562)"/>
<path d="M0 0 C0.12 0.64 0.25 1.28 0.38 1.94 C0.68 2.96 0.68 2.96 1 4 C1.66 4.33 2.32 4.66 3 5 C3 8.3 3 11.6 3 15 C1.35 15.33 -0.3 15.66 -2 16 C-4.78 13.33 -5.27 11.16 -5.38 7.44 C-5.4 4.64 -5.35 3.44 -3.6 1.22 C-2 0 -2 0 0 0 Z " fill="#003A76" transform="translate(1277,41)"/>
<path d="M0 0 C1.48 0.01 2.95 0.04 4.43 0.07 C5.18 0.08 5.94 0.09 6.71 0.1 C8.58 0.12 10.44 0.16 12.3 0.2 C12.87 2.13 12.87 2.13 13.3 4.2 C11.25 6.25 7.09 5.61 4.24 5.76 C3.1 5.82 3.1 5.82 1.94 5.89 C0.06 6 -1.82 6.1 -3.7 6.2 C-4.36 4.88 -5.02 3.56 -5.7 2.2 C-3.7 0.2 -3.7 0.2 0 0 Z " fill="#003A76" transform="translate(1235.6953125,590.8046875)"/>
<path d="M0 0 C4.56 0.56 4.56 0.56 6 2 C6.17 3.96 6.17 3.96 6.19 6.38 C6.2 7.17 6.22 7.96 6.23 8.77 C6 11 6 11 4 14 C1.48 13.66 0.33 13.43 -1.25 11.38 C-2.27 8.14 -2.25 5.37 -2 2 C-1.34 1.34 -0.68 0.68 0 0 Z " fill="#003A76" transform="translate(20,48)"/>
<path d="M0 0 C1.58 0.01 3.16 0.02 4.75 0.04 C5.55 0.04 6.36 0.04 7.19 0.05 C9.19 0.06 11.19 0.08 13.18 0.1 C13.75 2.04 13.75 2.04 14.18 4.1 C13.18 5.1 13.18 5.1 9.37 5.2 C7.79 5.19 6.2 5.18 4.62 5.16 C3.81 5.16 3.01 5.15 2.18 5.15 C0.18 5.13 -1.82 5.12 -3.82 5.1 C-4.38 3.16 -4.38 3.16 -4.82 1.1 C-3.82 0.1 -3.82 0.1 0 0 Z " fill="#003A76" transform="translate(917.81640625,578.90234375)"/>
<path d="M0 0 C0 0.66 0 1.32 0 2 C1.65 2.33 3.3 2.66 5 3 C2.8 7.84 2.8 7.84 1 10 C-2.75 10.94 -2.75 10.94 -6 11 C-8 8 -8 8 -7.94 5.5 C-6.58 1.88 -3.93 0 0 0 Z " fill="#003A76" transform="translate(518,202)"/>
<path d="M0 0 C1.65 0.02 1.65 0.02 3.34 0.04 C5 0.05 5 0.05 6.69 0.06 C7.54 0.07 8.4 0.09 9.28 0.1 C9.28 3.75 8.39 5.16 6.28 8.1 C4.09 9.41 4.09 9.41 2.28 10.1 C-1.65 7.74 -2.56 5.45 -3.72 1.1 C-2.72 0.1 -2.72 0.1 0 0 Z " fill="#003A76" transform="translate(1143.72265625,2.90234375)"/>
<path d="M0 0 C2.37 0.93 4.1 2.2 6.06 3.81 C5.19 8.69 5.19 8.69 4.06 9.81 C0.03 10.08 -1.5 10.11 -4.94 7.81 C-5.31 4.81 -5.31 4.81 -4.94 1.81 C-1.94 -0.19 -1.94 -0.19 0 0 Z " fill="#003A76" transform="translate(756.9375,125.1875)"/>
<path d="M0 0 C4.29 0 8.58 0 13 0 C13.66 1.32 14.32 2.64 15 4 C11.64 6.24 10.38 6.27 6.44 6.25 C5.47 6.26 4.5 6.26 3.5 6.27 C1 6 1 6 -1 4 C-0.67 2.68 -0.34 1.36 0 0 Z " fill="#003A76" transform="translate(811,591)"/>
<path d="M0 0 C1.32 0.33 2.64 0.66 4 1 C3.38 2.79 2.76 4.59 2.12 6.38 C1.78 7.37 1.43 8.37 1.07 9.4 C0 12 0 12 -2 14 C-4.62 13.62 -4.62 13.62 -7 13 C-6.71 7.03 -3.97 4.11 0 0 Z " fill="#003A76" transform="translate(782,179)"/>
<path d="M0 0 C0.99 0.33 1.98 0.66 3 1 C2.67 6.28 2.34 11.56 2 17 C0.68 17 -0.64 17 -2 17 C-3 16 -3 16 -3.19 12.38 C-3.15 8.45 -2.92 2.92 0 0 Z " fill="#003A76" transform="translate(46,308)"/>
<path d="M0 0 C3.15 0.26 4.81 0.86 7.38 2.75 C9 5 9 5 8.75 7.75 C8.5 8.49 8.25 9.24 8 10 C6.02 10.33 4.04 10.66 2 11 C-2.05 5.6 -2.05 5.6 -1.81 2.69 C-1 1 -1 1 0 0 Z " fill="#003A76" transform="translate(505,188)"/>
<path d="M0 0 C1.46 -0.05 2.92 -0.09 4.38 -0.12 C5.19 -0.15 6 -0.17 6.84 -0.2 C9 0 9 0 11 2 C10.62 4.12 10.62 4.12 10 6 C3.72 7.35 3.72 7.35 0.06 5.56 C-0.62 5.05 -1.3 4.53 -2 4 C-1.34 2.68 -0.68 1.36 0 0 Z " fill="#003A76" transform="translate(1046,578)"/>
<path d="M0 0 C1.46 -0.05 2.92 -0.09 4.38 -0.12 C5.19 -0.15 6 -0.17 6.84 -0.2 C9 0 9 0 11 2 C10.62 4.12 10.62 4.12 10 6 C3.72 7.35 3.72 7.35 0.06 5.56 C-0.62 5.05 -1.3 4.53 -2 4 C-1.34 2.68 -0.68 1.36 0 0 Z " fill="#003A76" transform="translate(278,578)"/>
<path d="M0 0 C1.31 2.06 1.31 2.06 2 4 C1.01 5.49 1.01 5.49 0 7 C-3.5 7.31 -3.5 7.31 -7 7 C-7.66 6.34 -8.32 5.68 -9 5 C-8.62 2.38 -8.62 2.38 -8 0 C-4.66 -1.11 -3.29 -1.1 0 0 Z " fill="#003A76" transform="translate(32,445)"/>
<path d="M0 0 C0.99 0.33 1.98 0.66 3 1 C2.53 5.26 0.23 7.36 -3 10 C-5.81 10.31 -5.81 10.31 -8 10 C-8.33 8.68 -8.66 7.36 -9 6 C-7.57 4.97 -6.13 3.95 -4.69 2.94 C-3.89 2.37 -3.09 1.8 -2.26 1.21 C-1.52 0.81 -0.77 0.41 0 0 Z " fill="#003A76" transform="translate(466,186)"/>
<path d="M0 0 C0.74 0.08 1.48 0.17 2.25 0.25 C3.44 1.94 3.44 1.94 4.25 4.25 C2.88 7 2.88 7 1.25 9.25 C-1.99 8.9 -3.37 8.69 -5.56 6.19 C-5.95 5.55 -6.35 4.91 -6.75 4.25 C-3.43 0.31 -3.43 0.31 0 0 Z " fill="#003A76" transform="translate(84.75,-0.25)"/>
<path d="M0 0 C1.93 0.02 1.93 0.02 3.9 0.04 C5.19 0.04 6.48 0.05 7.81 0.06 C8.81 0.07 9.81 0.09 10.84 0.1 C10.84 1.42 10.84 2.74 10.84 4.1 C6.22 4.43 1.6 4.76 -3.16 5.1 C-3.49 3.78 -3.82 2.46 -4.16 1.1 C-3.16 0.1 -3.16 0.1 0 0 Z " fill="#003A76" transform="translate(1169.16015625,578.90234375)"/>
<path d="M0 0 C1.22 0.03 1.22 0.03 2.46 0.07 C3.69 0.1 3.69 0.1 4.94 0.12 C5.88 0.16 5.88 0.16 6.84 0.2 C7.46 2.07 7.46 2.07 7.84 4.2 C5.84 6.2 5.84 6.2 3.89 6.39 C1.87 6.33 -0.15 6.26 -2.16 6.2 C-2.82 4.88 -3.48 3.56 -4.16 2.2 C-2.16 0.2 -2.16 0.2 0 0 Z " fill="#003A76" transform="translate(315.1640625,577.8046875)"/>
<path d="M0 0 C3.19 0.88 3.19 0.88 6 2 C5.12 6.88 5.12 6.88 4 8 C1.06 8.19 1.06 8.19 -2 8 C-2.66 7.34 -3.32 6.68 -4 6 C-3.81 4 -3.81 4 -3 2 C-2.01 1.34 -1.02 0.68 0 0 Z " fill="#003A76" transform="translate(1192,541)"/>
<path d="M0 0 C0.56 0.27 1.11 0.54 1.69 0.81 C1.11 4.17 0.09 5.75 -2.38 8.06 C-2.92 8.58 -3.47 9.1 -4.04 9.64 C-4.46 10.03 -4.88 10.41 -5.31 10.81 C-6.63 10.15 -7.95 9.49 -9.31 8.81 C-7.66 4.77 -4.81 -0.39 0 0 Z " fill="#003A76" transform="translate(827.3125,162.1875)"/>
<path d="M0 0 C2.82 0.06 3.75 0.08 6.06 1.81 C6.56 2.55 6.56 2.55 7.06 3.31 C3.23 6.02 0.74 6.64 -3.94 6.31 C-4.6 4.99 -5.26 3.67 -5.94 2.31 C-3.94 0.31 -3.94 0.31 0 0 Z " fill="#003A76" transform="translate(952.9375,590.6875)"/>
<path d="M0 0 C3.54 0.54 3.54 0.54 5 2 C5.19 4.94 5.19 4.94 5 8 C4.34 8.66 3.68 9.32 3 10 C-0.54 9.46 -0.54 9.46 -2 8 C-2.19 5.06 -2.19 5.06 -2 2 C-1.34 1.34 -0.68 0.68 0 0 Z " fill="#003A76" transform="translate(44,249)"/>
<path d="M0 0 C2.56 0.19 2.56 0.19 4.56 2.19 C4.01 6.74 4.01 6.74 2.56 8.19 C0.06 8.31 0.06 8.31 -2.44 8.19 C-3.44 7.19 -3.44 7.19 -3.56 4.19 C-3.4 0.26 -3.4 0.26 0 0 Z " fill="#003A76" transform="translate(682.4375,156.8125)"/>
<path d="M0 0 C0.99 0 1.98 0 3 0 C3 3.3 3 6.6 3 10 C1.68 10.33 0.36 10.66 -1 11 C-1.66 10.34 -2.32 9.68 -3 9 C-2.54 2.54 -2.54 2.54 0 0 Z " fill="#003A76" transform="translate(484,594)"/>
<path d="M0 0 C2.31 0 4.62 0 7 0 C7.66 1.32 8.32 2.64 9 4 C7 6 7 6 4 6.25 C1 6 1 6 -1 4 C-0.62 1.88 -0.62 1.88 0 0 Z " fill="#003A76" transform="translate(336,591)"/>
<path d="M0 0 C1.32 0.66 2.64 1.32 4 2 C4.12 4.88 4.12 4.88 4 8 C3.34 8.66 2.68 9.32 2 10 C-0.12 9.62 -0.12 9.62 -2 9 C-2.12 5.62 -2.12 5.62 -2 2 C-1.34 1.34 -0.68 0.68 0 0 Z " fill="#003A76" transform="translate(809,477)"/>
<path d="M0 0 C0.99 0.33 1.98 0.66 3 1 C4.02 6.79 3.96 10.46 2 16 C1.34 16 0.68 16 0 16 C0 10.72 0 5.44 0 0 Z " fill="#003A76" transform="translate(0,56)"/>
<path d="M0 0 C0.95 0.04 1.9 0.08 2.88 0.12 C3.54 1.45 4.19 2.76 4.88 4.12 C2.88 6.12 2.88 6.12 -0.25 6.25 C-1.2 6.21 -2.15 6.17 -3.12 6.12 C-3.79 4.8 -4.44 3.49 -5.12 2.12 C-3.12 0.12 -3.12 0.12 0 0 Z " fill="#003A76" transform="translate(1029.125,577.875)"/>
<path d="M0 0 C0.95 0.04 1.9 0.08 2.88 0.12 C3.54 1.45 4.19 2.76 4.88 4.12 C2.88 6.12 2.88 6.12 -0.25 6.25 C-1.2 6.21 -2.15 6.17 -3.12 6.12 C-3.79 4.8 -4.44 3.49 -5.12 2.12 C-3.12 0.12 -3.12 0.12 0 0 Z " fill="#003A76" transform="translate(261.125,577.875)"/>
<path d="M0 0 C1.32 0.66 2.64 1.32 4 2 C4.12 4.38 4.12 4.38 4 7 C3.34 7.66 2.68 8.32 2 9 C-0.12 8.62 -0.12 8.62 -2 8 C-2.69 5.69 -2.69 5.69 -3 3 C-1.56 1.19 -1.56 1.19 0 0 Z " fill="#003A76" transform="translate(810,413)"/>
<path d="M0 0 C1.98 0.99 1.98 0.99 4 2 C4.29 10.57 4.29 10.57 2 14 C1.34 14 0.68 14 0 14 C0 9.38 0 4.76 0 0 Z " fill="#003A76" transform="translate(0,32)"/>
<path d="M0 0 C1.32 0.66 2.64 1.32 4 2 C4.25 7.62 4.25 7.62 2 11 C1.01 10.67 0.02 10.34 -1 10 C-1.03 8.52 -1.05 7.04 -1.06 5.56 C-1.07 4.74 -1.09 3.92 -1.1 3.07 C-1 1 -1 1 0 0 Z " fill="#003A70" transform="translate(1251,554)"/>
<path d="M0 0 C1.68 0.29 3.34 0.62 5 1 C5.33 2.65 5.66 4.3 6 6 C4.35 6.66 2.7 7.32 1 8 C-1 6 -1 6 -1.19 3.44 C-1 1 -1 1 0 0 Z " fill="#003A76" transform="translate(823,286)"/>
<path d="M0 0 C2 1 4 2 6 3 C5.67 4.65 5.34 6.3 5 8 C0.25 7.25 0.25 7.25 -2 5 C-1.46 1.46 -1.46 1.46 0 0 Z " fill="#003A76" transform="translate(499,199)"/>
<path d="M0 0 C1.21 0.03 1.21 0.03 2.44 0.06 C3.1 1.38 3.76 2.7 4.44 4.06 C1.44 6.06 1.44 6.06 -1.25 5.69 C-2.01 5.48 -2.78 5.27 -3.56 5.06 C-3.56 0.09 -3.56 0.09 0 0 Z " fill="#003A76" transform="translate(878.5625,590.9375)"/>
<path d="M0 0 C2.31 0 4.62 0 7 0 C6.67 1.98 6.34 3.96 6 6 C4.68 6.33 3.36 6.66 2 7 C0 4 0 4 0 0 Z " fill="#003A76" transform="translate(44,0)"/>
<path d="M0 0 C1.5 1.12 1.5 1.12 3 3 C3.19 6.19 3.19 6.19 3 9 C1.68 9.33 0.36 9.66 -1 10 C-2.25 3.38 -2.25 3.38 0 0 Z " fill="#003A76" transform="translate(46,385)"/>
<path d="M0 0 C1.68 0.29 3.34 0.62 5 1 C5 2.65 5 4.3 5 6 C3.34 6.38 1.68 6.71 0 7 C-1 6 -1 6 -1.12 3.5 C-1 1 -1 1 0 0 Z " fill="#003A76" transform="translate(442,223)"/>
<path d="M0 0 C2.06 0.44 2.06 0.44 4 1 C4.62 2.88 4.62 2.88 5 5 C4.34 5.66 3.68 6.32 3 7 C0.38 6.62 0.38 6.62 -2 6 C-1.12 1.12 -1.12 1.12 0 0 Z " fill="#003A76" transform="translate(788,159)"/>
<path d="M0 0 C1.65 0.33 3.3 0.66 5 1 C5 2.65 5 4.3 5 6 C3.12 6.62 3.12 6.62 1 7 C0.34 6.34 -0.32 5.68 -1 5 C-0.62 2.38 -0.62 2.38 0 0 Z " fill="#003A76" transform="translate(1216,478)"/>
<path d="M0 0 C2.12 0.38 2.12 0.38 4 1 C3.67 2.65 3.34 4.3 3 6 C1.68 6.33 0.36 6.66 -1 7 C-1.62 4.62 -1.62 4.62 -2 2 C-1.34 1.34 -0.68 0.68 0 0 Z " fill="#003A76" transform="translate(449,163)"/>
<path d="M0 0 C2.12 0.38 2.12 0.38 4 1 C4 2.32 4 3.64 4 5 C2.35 5.33 0.7 5.66 -1 6 C-1.62 4.12 -1.62 4.12 -2 2 C-1.34 1.34 -0.68 0.68 0 0 Z " fill="#003A76" transform="translate(314,29)"/>
<path d="M0 0 C1.21 0.03 1.21 0.03 2.44 0.06 C3 2 3 2 3.44 4.06 C2.44 5.06 2.44 5.06 -0.12 5.12 C-1.33 5.09 -1.33 5.09 -2.56 5.06 C-3.12 3.12 -3.12 3.12 -3.56 1.06 C-2.56 0.06 -2.56 0.06 0 0 Z " fill="#003A76" transform="translate(116.5625,590.9375)"/>
<path d="M0 0 C0.66 0.33 1.32 0.66 2 1 C2 3.31 2 5.62 2 8 C0.68 8 -0.64 8 -2 8 C-2.12 5.12 -2.12 5.12 -2 2 C-1.34 1.34 -0.68 0.68 0 0 Z " fill="#003A76" transform="translate(500,411)"/>
<path d="M0 0 C1.98 0.99 1.98 0.99 4 2 C4 3.65 4 5.3 4 7 C2.02 7.99 2.02 7.99 0 9 C0 6.03 0 3.06 0 0 Z " fill="#003A76" transform="translate(0,119)"/>
<path d="M0 0 C0.99 0.33 1.98 0.66 3 1 C3 2.65 3 4.3 3 6 C1.68 6.33 0.36 6.66 -1 7 C-1.62 4.62 -1.62 4.62 -2 2 C-1.34 1.34 -0.68 0.68 0 0 Z " fill="#003A76" transform="translate(811,301)"/>
<path d="M0 0 C2.06 0.44 2.06 0.44 4 1 C4 2.32 4 3.64 4 5 C2.68 5.33 1.36 5.66 0 6 C-0.38 4.34 -0.71 2.68 -1 1 C-0.67 0.67 -0.34 0.34 0 0 Z " fill="#003A76" transform="translate(424,252)"/>
<path d="M0 0 C1.65 0.33 3.3 0.66 5 1 C4.67 2.65 4.34 4.3 4 6 C2.35 5.67 0.7 5.34 -1 5 C-0.67 3.35 -0.34 1.7 0 0 Z " fill="#003A76" transform="translate(61,3)"/>
<path d="M0 0 C0.99 0.33 1.98 0.66 3 1 C3 2.65 3 4.3 3 6 C1.68 6 0.36 6 -1 6 C-1.62 4.12 -1.62 4.12 -2 2 C-1.34 1.34 -0.68 0.68 0 0 Z " fill="#003A76" transform="translate(20,30)"/>
<path d="M0 0 C1.32 0.66 2.64 1.32 4 2 C3.34 3.32 2.68 4.64 2 6 C0.68 5.67 -0.64 5.34 -2 5 C-1.12 1.12 -1.12 1.12 0 0 Z " fill="#003A76" transform="translate(1082,29)"/>
<path d="M0 0 C1.65 0.33 3.3 0.66 5 1 C4.67 2.32 4.34 3.64 4 5 C2.35 4.67 0.7 4.34 -1 4 C-0.67 2.68 -0.34 1.36 0 0 Z " fill="#003A76" transform="translate(1026,29)"/>
<path d="M0 0 C1.32 0.66 2.64 1.32 4 2 C3.34 3.32 2.68 4.64 2 6 C0.68 5.67 -0.64 5.34 -2 5 C-1.12 1.12 -1.12 1.12 0 0 Z " fill="#003A76" transform="translate(388,29)"/>
<path d="M0 0 C1.65 0.33 3.3 0.66 5 1 C4.67 2.32 4.34 3.64 4 5 C2.35 4.67 0.7 4.34 -1 4 C-0.67 2.68 -0.34 1.36 0 0 Z " fill="#003A76" transform="translate(258,29)"/>
</svg>
